<mxfile host="app.diagrams.net" agent="Mozilla/5.0 (Windows NT 10.0; Win64; x64) AppleWebKit/537.36 (KHTML, like Gecko) Chrome/127.0.0.0 Safari/537.36" version="24.7.6">
  <diagram name="Page-1" id="xKX1tuysxUlatDMZ5dmd">
    <mxGraphModel grid="1" page="1" gridSize="10" guides="1" tooltips="1" connect="1" arrows="1" fold="1" pageScale="1" pageWidth="850" pageHeight="1100" math="0" shadow="0">
      <root>
        <mxCell id="0" />
        <mxCell id="1" parent="0" />
        <mxCell id="rVTaWRf0EMXNWynutYvV-1" value="Distributed Key Value Store" style="text;html=1;align=center;verticalAlign=middle;resizable=0;points=[];autosize=1;strokeColor=none;fillColor=none;" vertex="1" parent="1">
          <mxGeometry x="340" y="20" width="170" height="30" as="geometry" />
        </mxCell>
        <mxCell id="rVTaWRf0EMXNWynutYvV-2" value="" style="shape=image;verticalLabelPosition=bottom;labelBackgroundColor=default;verticalAlign=top;aspect=fixed;imageAspect=0;image=data:image/png,iVBORw0KGgoAAAANSUhEUgAAAmsAAACvCAYAAACiqplvAAAAAXNSR0IArs4c6QAAAARnQU1BAACxjwv8YQUAAAAJcEhZcwAADsMAAA7DAcdvqGQAAJfTSURBVHhe7J0HWFTHGoa/bfSOgIgiKqBYAEUsWNHYorHEbizxGmNJ1CS2qIlJNNHE3ktiYu+9RWPFiiLSVBQFBFSagvS6u/+dLeACC4ItJJn3PuMNc+bM/DNnyjdz5swKiAEOh8PhcDgcTqVEqP5/DofD4XA4HE4lhIs1DofD4XA4nEoMF2scDofD4XA4lRgu1jgcDofD4XAqMVyscTgcDofD4VRiuFjjcDgcDofDqcRwscbhcDgcDodTianUYk2WEoGboQmQq/8ulbynuBsciXT1nxzOW0Gegohr53AxNAkytVe5+cfUUSme3r2FqEz1n2+T3ATcYWXC4XA4nLJ5NbEmf4rLu4/hfp767zLIuHUA+66nqv8qD6m4sHA4ujVzhJV1PQxcf48NH9qQIXz3dAzu1hxOVe3gPn4fEio8gnL+PciRFXsH1y6cx8XroYjLKirx5U8vY/ex+3h5lc3ArQP7ULzKZoZuw5e9O6Nzt65o36Qr5oVor5VF+efUUVnMIcz+qDu86tqgeuMvcCzlpVOkVyQPfms+wYfveaCmTQ00+eyA2p/D4XA4pfFqv2CQvgeDag7BQVSHc51qMDPQgTA1CiHRqTCs5gJHKwlkuRlIfBSJ6ASg9/bH2DXAUH1zeZAjblUnOEwMQM/tUdg72FTtXxw5ckJ/Rgf32Xgy6iTur30Puuorr0TuXRzfcgGPig2oAnFNtBvWDfUqGrk8Aw8vH8aRuAaYNNBd7Vl+ZPe3YsK4+TgYEItsEsCwRmO0+nAyVn7XHTZMZudcXYwRX/+GC7fikSswgYOnN0bO+RUTm79WKbw5pLew4bOvse6va4hIYYWqawMXNwfoZTzDc7JB094TMevLrnDQUYdn5PguxSezN8PHPxoZrGYa2taFo40eBCBIM58h5mEs0sXvYfndvRhurronN3wfvv3sO5zI90DH5tWQd/cYdp15DsdRq3FsaW9Ys7JK3zMINYccBKo7o041MxjoCJEaFYLoVENUc2ETA4kMuRmJeBQZjQT0xvbHu1BQZdOvzkWvqc8w6/hytMs8jbXbU/HepH5wKVcxv+E6+taQIy/lCma16Yhl+RNxIWQRvDSey5sm6+o0eLZbitzxZxC+vJ3al8PhcDhaUYi1ipJzdjw5Og2n3VG5ah8p3ZvXnCQCU+q3M03tRySL3Ux9bFxp5o18tU95yaXLXzmTWKctLXkoU/tpJ/fyV+QsNqTuG56pfV6dnNPjyF7EVAErlhdOQEYdV9JDqTpQOci4vJRGvN+S6lU1IJFAQu6zA9VXXgFZIu0fVp3FY0Q9NyapPV+QH/IdeZi50WeHY6iipfxukFHMMm/SYeXQ/KdQVlMY0ng6/3VzMhJKyHH0UXpW/BFLI2hhKwlB0qhY3ZFR4v7hZF9zDJ3KUXs9P0HjnfWp5ogDFF8YTwqdm1iPDNouJlX1yaGz4x3JafhuelFl79G85hISmPajF1VWRrGb+5CN60wqTDb7Ck1rYESec2+rbH8F3mQdfVNIH5+i3WdiWY41yDlBo+3EZDZgF71oxW+HzIPDqIrIlPpuT1H7cDgcDqc0XuE1aB4CTt1BszkL0a9mwdQ7G8HBYZCJneDmaqD2A4TWreHVwB729mK1TzmRJ+BmYBRQpwVaVivLRDni/QMRJXCGR9PSVt/KSx6CzlyHw4zTuOHvD/9CdxN+Wz+Bg0gdrBwYtpyAX/cfxtI+dhAITNDAzVl95RUQWqHHZx+hrigLF48cx1PNt1OySGyYsQd2C/ZhWc8aqGApvyOkiI2Nh1xUEy1a14GyGEU2aD9rFvpXlSNi53ocelbslZssAYlJBKFFU7RoqJkrIaw6dUSz2g5QVSk5Yncvw+bIauj1P9VqowpTtP1sBDz1xKr08gJw6k4zzFnYDy+qbDCCw2QQO7nhRZUVwrq1FxrYszqrTjb54DL8fr8Ounavq4qrwrzJOvpmkIb+hgHtRuJYmkmRfRCyCH8EJQrQwNMTL1rx20CK+4G3kCpsiObNjdR+HA6HwymNVxBrcph3+h5z+1m/uFl6D8GhmYB5A7jW1hjSRNXwwXcz0M1S/Xd5ybkJ/9ssnaYt4Vrmq5hs3PS/BbmFG5rWfU2pIovA2SvGeH+YN5p6eMCj0DWGi62eOlA5EYqgo2cCgSwLJHJB48av9+JLx2MoBrmLkXp2Jw7FFwgbGR5unIJNVX/C+lGOlVSoKUjFrdvRkOnUg2tDjYep54CatkJQbgLinikWMV8gT7mFW9FMSNV3h3vx52/QGp990we1lNVMiof3HyKX8pGXVzQOUe0e+HxEM5grKqncHJ2+n4t+ivehaqT3gqGqsq4oWmU/wHczukFVZVPw18EzSLFoAk+XVy3hN1hH3whSBG5bgaOx9dGyhb7aT0XazQDcoxpo0tTuFYVpeUlDUOADUM2maF7j7abE4XA4/wZeQazpoV7H9qitOe6khSAkQgpxPbdi4koPddt6wb5Yf5zzxB/HNi7CjHGj8MnEGfhx3TnEaOwTk4bdRHCKGG4tmrEYGOn3cHTZdIwd9x32huUqwyiR3oV/cCpEDZvCo4SokyHhxh4sn/05PmH3bWfhykIeexYXyRvva47cr4PsMYJvJwLVGsG92mvGKXbBR0NaQi/dBzt2Rym/RJSF/4bJOxzxy+I+qFrKU8yL88POhV9j3KjR+GreLgSlqC8UIH+O4J1zMWnecSRoLm5JE3Fz72LM2xmq8XFHBu4emI8pS87hOftL9ugMlkz+Ekt9Epl8L4Pc2wgKzYW4titcTdR+CvJi8ChODqFJbTjbFS2f/JAghOaJUNOtscZqGTMrNgS3njqgfYe6UD1uMarXtINE/hj7Fm/APc2vB8QN0W9ICyjXbfTqoWP72kUEbVpICCKkYtRzc1XHpUavLtp62SP34XWcPr4J+6+mQWgpRtL5kzh52h+PFGlUpNzKrKNFkcZfwa8zp+C3oBcZSb37J9bMmog5Rx4pn7sSWQKubf4e48cuwLkkLaXPrt/YsxyzP/8E477bjoKqL39+F5dOHsTO0/dB1paQB5xiebqCcOUnqrkI9gtCtr4bPN3VkwvZU9zcOQ+TRk/HjjBtH1TkIc5vJxZ+PQ6jRn+FebuCmLwthcyHuLBlPiaPHoGR46dgs38ujBq3QOMiZSJFnO92/DJ1DEZPW4vLRQqXw+Fw/sOoX4e+Frk+E6mOWEQ1x52hgq1EWskOo73T+lCXgZNpwfo/6LfFn1EbKyFJWsyne4UbgmSU8Gs30pc0oln+OZTgM4/6eLWnnu/VJWOhgIy7rqPH6o02svh11EVfTC5TfalgK5KSzBDaOPYD6vvVStq+9SfqVVNM4toT6HwZxiVt7kte005R8NldtH7lKvp93yWKTFdffBUy9tJgcyHpd/uVEtRer4PsyXrqZiwgSZPvKDjzDi3r1ZXm+GWqrxZDlkzXV35EXu1H07K9R2nfkmHUwFBIRh7f0tVsdZgUf1o9pD6ZsDKVeP1C4RobshR7EmuKjajHH4kqD2kMHZ7UjCzELKzbt+QfvZ9GOeuRAAIy67+zzP1Nsqgl1E5HEW4XvShOGcVs6kPWIn1ym3GFiuZCShELW5NEYEy9Nz9X+zFksbRjiDdN9y3ypImSj9HoWhISCHSoVu8l5JtUfAOcNnLJZ2IdEotq0rgzWiqFNIJ2zxhJQz9wI3OhkEzqd6MRY7+kWavOUmxyBcqNUWodLUbKjeXUp7Y+y4cefbCJlSh7hteWDqTmrk5kJRGQXs/NyvLLjz5KX3dpQg1qmpBQVJ3GFG7eU5EZspHGftCXvlq5nbb+1IvZI6baE86zdimlBzum0YgBXmQnEpKFRz8a+/kkmjLvIIUr9udJw2lBKwlJmv1EoSxPOeF76asuzah5Q1v2LHTIe/ljVQJqZMnXaeVHXtR+9DLae3QfLRnWgAyFRuTx7VUqqGIqMujO9i+oe6eP6JtVm2nrhkU0tVddMhRIqPXCiBf7AGXxdOrb/tR/0vf0zacdqJaemOpMvKC+yOFwOP9t3oBYYwPvcsUGcj3qsi6+6IZlTXJu05oPalGD0YfoSUGgjH002EJCjpMuaAxkOXTyUzuS2Ayn33Z9Tu8PXkq+ih3o2UdoZFUhiWqOo4LxNefPUVRNbEYDd2uoqtxQWt/LkZp+fVktIrLp6EgbElcZSgcylB5ayKRDo5yoVqNm5NW6OTWwMySRQEC6NbrRAt9X22qdf2MmNZKIqcHX19/Mxn9ZIm3pY05CcR36YGAn6rEwpJTBP5uCF3pTFfuPaE9sQUGn09FRdiQSVqWRRxTSKJ1Oz5tEq31+owFmYrL75ISGyJZS2PwWJJG0oPlKBS2le79OpMnbz9HP7XRIv+v3tHhABxqz+STtW7WKjkWUnbvswx+TtVBCnj/eUQ3M0iQK2TGJmlexohZfHqKoErdn0v6PLEkoMKTaXt3o/fffp/e7dab2jauToVk/2qHlcWQEr6ZeNZhgY+LRsO4Q+jX4JSpbFkPLvXVIoNeF1r34KqEE2YeGk5VQh9ovi1HX64qUmwqtdbQ46Sfph/HL6Pz6vmQicaYvLz6h0193ox6zz1JC5hkazyYbZgN30/OwzfTxex/RuuAUeryyA+mIXWiqhnjNDV1PvRyb0teX1YWUfZRG2oipytADTDKpKPVjh/RdyjxV//QkJVxbQH07j6Ftd7NVZSAypj5bNT4EyA6mhd5VyP6jPfSiih2lUXYiElYdScoqpoTVxWVdqHq9UXSwsNGzoHsHM+HvQJ+dfVF6SXs/ouqFH3ZI6bHPNjp8u5TJCIfD4fzHeANiLZuO/c+WiYh6NOVqaWsH2eQ7w40Mqo+ggxofNOZenUL1JGbUT3MElt6hHz0lJKrqTN6jttCDgihzztJnDiISO39Fl5V++XTrBw82OLaiBYXLG1IKX92ZLGyH0F51OtmKAax6NeqyPKTMVT+ZVGPQlibQhe/bkYVi9aTBdCq+mFMeEn97nwyEZjRg10uEQwVI2tSLjJmI1Gs2l0JK0Ui5N2aTh74eef0SphJHSmQUtaQd6UCxQlIgPFjYK5PJWWJEH2zUHLiTmSg0IYnTl3RJM985J+lTOwnZNWlLfRcEl7lK9AIp3Z7TlCQCdp9HZ3qvZSOqZWVAYrOONP/GMw37NMgPpNnuEhJa9KZVN4IpODiYggJ86cTP3cmuxU90V+tN7Dnf3Uqj3ExJyASbqEpHWhRYxkCffYz+Zyskcb0pVGqVZdbdU4gvkT2NPV205pS/3LTV0dLIpWvTXEhi3oe++64P9f7pGinlUeJv1E1fQh5fLqVx3UbS9ghF5Nn05ydMfJv2pcKPKaXhtLqzBdkO2Uuqqp9Noet7UfVqXWh5SIH9MopWfJkrcafZgUUrUO6VKVRXbECdvv6RBvT8lnyUK5RSCv2pGbPfk+beKbA/l27M9iB9PS/6JUwjT7IoWsLEPHS8aXmMqoZlXpxCDfRsacieZxqTuFy6MrkuiQ3ep98KFyBz6erUeiQx8KRvX3FyxOFwOP9mXmHPWjFkDxF8+xlI3wVu9bVvypE9/APfrQlF7eGfo4eF2lNxYOjZC4hAPTRpovHtWfpN3Lwng4H9IPy0bBgcC6LMeYLYZwTDBu5wUfql4WZAGKh6Y3hWV+95yruKVcvOg9p8gNZpF7Hp26H4YIIPPNZewqGJjco830oo0igKkTXazvgFo+uJkH//L5y4q9qvI4s4gTWLF2HRogK3GMsP3dFy0GouQgLvIFdUF+7uRTdxvw4SscJGMVx79UV9rXvVM/DXmg0IkjdDv/7qLy/VEMlBAhGMTQu+AJTh0ZVreIgGaNnCTOmjQJ54Cn/6ZsKwcfMim/tlUQEITpTiGdpjxsRi+7xKJQvBwQ8gFbfAV/tO4PSZjRjpKIIsPRwPn+lq38SeHoygcClE9Vqia2NXuLq6wq1xC3Qa0As9O7VUf1hQEr16Q7HB5y/M72QNJJ3DN2OW4FYp59bKHgbjNqtL+i5uKKXKMvJx724EZGJnNGogUfspqEi5aamjpSGPg+/1SMgF/jgdOxSrv24OxbejOf7XEcIq2OM/fWD/w0oMqc0il97DNf9EiBq1QAv1x5R5V1dh2XlCmw9aI+3iJnw79ANM8PHA2kuHMLFRQc1Xf+xg7gaPepoVSI6EmzcRJScEnonFR+u+RzsLRS1JwbVroaBqnvCqo7Y/4y+s2RAEebN+6F/gp4RN/Nj9ApExTE3YvbJI/P7Dety3H4zxvSxfbI6Vx+L6jYcQ1HaHu/qcPLDa1LCTN+zz/DHvg66YejRGY68kh8PhcAr70FcmOwTB96UQO7GBVeu5tzJEH9yNC5k14N2pUeEmb3nsXsxdFwC5dUO4a5yLkRt0A8HZRuj42SS01PiqP/PyBfjlmKJD7y5QDpG5wbgRkgM916ZwU49Fef5HcOKhHOIH2zF10UUIO8/D0TM78G2P2qoPFSqCTkM0rKsDAbNfphw5WD4u7sOeg4dw6FCBO4rgJC2iQxaLoJBYwKpo3l6PPNwJuYdsoRUaNa6tXejkBeLcpUTAzg2Ni3zUkI+HDx9DLnZkwqPgIaXiytUQUI1maFmggOTxODR9BvYlCNGgaVNoysysgACEya3RZ/pElPvj1rw7yq+EhVUbwNWWVTUDD3wxawDs8Ah7Vu7EIy37x/NuBSI0Rwjr+q7Q1DeiWqOxZo73C8Gd/hBhj3LUf6gxa44pO9dhWHUhcgJ3Y1eQ9iE/OyQY96ViODEhWOpRzbJo3L2fAqF9QzSy1GwmFSg3LXW0VDJ9cTU4H6Kq/fDT4g+hOrFGirBr/kgkM3hOXoKpnipr5c+u4VoYwaFZS3UZ5cH/yAk8lIvxYPtULLooROd5R3Fmx7foUVuj5is+dgjS9rFDDm7euI18iSNGLv0FPRXPSunth6sB2TBs4oUmBW0s8BxUVawxilaxh3j4mLU9x0ZQVDFZ1AHsvZyFqu07F0nr+elFWO8rZZMuN2jqReNOC7BrwfuwTfXF4n7e+HiH6kMaDofD4bwBsSa9qzgCQQATF1c4al3tScH5c/7IE9ZGvXrqFYrc21gzbQ3Y2ARJ/SZwL1y4kCH2ZhAeCZzQuInmp4OpOL3nBJJdPsVk9ZEhssf+CHosQF2PpjBWBULm3VBEy8TwGLcJW1d9g+Ft7Csu0gqQpyE1TQpRjbbooDy2QYTaI3+Hz+XLuFzofPDHKMeSwik3EIF3ZRC7NIab5qLM6yBPQUgwG8DE9dHkRYEVJT8G0XEyCM0sYalplDQEp30eQ+jSE73d1Q+JDcSXb2TDyMNLLb5yELLyC2yJs4SBqDrcm1bXyFceQvxDkKHrgfe8NVZJXoI8JQQhUawc6rmiodpk405jMaKBCKmnl2HltWJiS7HCExSCGPYM67q5Qlsuc24dxsHgTOSF/oaJv1yCxrfBSoSWXdG3kxWE8kykpmsb7qW4GxyKTIEJXFzLOPIk/y5Cw2XQq98YmieOVKTctNXR0si9eRU3M/TRYdI0tC0ILH8G32thIMdh+HrEC4Gec90XQXmmaOrlpl7hzMTd0GhWNzwwbtNWrPpmONrYl6z58mf+8I9gIq+JB6w0H6JSxKVA5D4I/9OYIUnv+eJGoggNvVoW2p8fE404mRBmlpZF6r005DR8Hgvh0rM3FFUs7eJF3MwToU59l8JV2LywP/DFd8eRKBOhnrt7kckAYISmXx7C5d1j4arzELtnL8XlkkvWHA6H85/kNcWaHMlBQYiUiuDUsKH214zSWDyKU6gyY5gas+SkUdj75Xd42LMvnLKEsHd1hfGj67ih/I0nKcLCIiEXWsLG5sUwmnNjMX48UgWfr/4GrdRvTLNv3sQduRXcPWoh/eZZXEuUQyqTKV/3JTx+rPEaRY6nVzdg08XSju7IwNOnWer/foE84S+cDrbCB99MRrsKnhAqvRuAkDQhajR0RZUSJZyH5IfhiCuZZNnkB+Lm7TyISqz0aCAyhJGeAJSeAs2fdsy4vA37w6zQb9YENFEXqzRMMRAL0LBZMzZMZuH2hjGY9XAQxjbJRbZeIzR1y8O9W+FMijBkT3D9RhQETh7wKHx19XLygwNwmw3YNeo3gPKtmgKdJvjsq+6wkN3Dr9/+ivtF9FQOAgNDIRVWRT0XLaIwJxCLJixGMKtpQh0Rnp4+iIsZ6muFyJCfJ4XAsAEau2iRe/JkBAVFQipyQsOGpS93yaJCEZYqQt0mTYoIrYqUm7Y6qh0p7l+4yiYpbvDuwISm2hfZV3E5IA9mzVprvFrNw+1rN/Fc7IaWzWSIiU5iflLIZIrXkAl4/FhjNVH+FFc3bEJB1c8PCsCdfCO4ejSETs59XLmuOg5EnnQTN8PlqOruqfGambUb32u4Tw5o1sIOaXHxSl+RoRH0BIT0lBQWooAMXN62H2FW/TBrQhMmgGVIjH+KfBLAyMRcmZ+8iN34YkYg3hvgDpnAGg3dqyM5NBRxcjlSIu4iRlnRxKjZZxnWjqvLxLYc8qJH53E4HM5/llJG/XLCZv5nTvmzgUkES2vrIjPtQgRGMGZih3JDcenQESz+30Scb7sAP9hG4W4OQXpnHQaN3YUEsUAZXPlLpdI7uHIpSTkY5IbvwPjxp9D0t8OY16Zg1i9FZOgDZAp0EH9kDIavegB9QyFMXVxgL5bi1pZfsO12AmJDTuKPmR+i98/P4NxI+9pG8o6P4eLYAiPXX0OCeiaf9+gvzPlkLWRT9+D3EbW056tUZAg/fQ73pQJY2doUu1eOpH2j4OpcF64jd6n9ykeW30n4JMggqFIVtqUZJHFDU1d9JjROYt9V1QgtTzqPH6bsgdmU7VjVz6bwgefdDUUEG9fz4n2x4cv+mBzYHct+aYvYWxGQSVJwcfrHWHA5UzmYI+MafG/JYObaBM6lLkUVJwf+f11AvExRDtU0ykEI28Hf46vmBkjzmYtJa+++WB3LvIbTlxXPnVnJBEERssKwfdxgLBH2xXDFrxqIxRA83IRps89C86gxafhm/HoiF+4TvsYgLQfQyZ+dwSl/pgxElrC2Lv3J5jIhEUFV0bSlU5HVt/KXm/Y6qhUmsi5eugOq1RxeGocS5gVcxPUUMVybN3uxCiV/joAAlpZBDq7OHIpvTsYxT1O4uNhDLL2FLb9sw+2EWISc/AMzP+yNn585Q1X15Xh2PxxP5TrICFmN0T0n468sAyhaXX6AH0LydNGoqbvGhCtPub8tVyBCzO7/4ZMlfkpfiVtTuOrLEHVyH1RVjNXp8z9gyh4zTNm+Cv2UB+OJYGFpCpFAiuATW3F8+ywMHH8OrRfMR+0noUziivFo7yiMWXsb2c924RNPN3j1Xwa/ZFbbZAmIiJGgw1fj0aZ0Lc3hcDj/LdQfGlSQTLq05GPq09aJTIWKUVVAEhs36jxgOu0t8SOa+RT4Q1PSFwjIoM4HNFf9e4SZeweRmdCInPrMpwsJL74VS/OZQR6mQhIY2lHDJh7k1XsybQpI1viaTEEuXZtenyQSa2oxcS9FFnzYJouhHcPrsLRUv+kpsXSlfnOPU2QZn4FKI3fTWA9LEiuO6jCrTnUc61KzPlPpd9947V8rlko+Bf/+OQ3o6kF2+qoyEVvWp459R9EK34KTp2QUtbIjGQqEVHXofrVf2UjDd9G0gV3IzUZxNIXiGwEzcm7Xh77Ypvm15wsy/BZSZzsJicycybtXH+rSsQ99vSdU44wzFTmnx1INkYCEJnWp76IrpPr47wH93FJCYgsPGrvjAStlFcpz9HTM6P11L74kLYuUs/NoUCdXspa8KIf3hiyiyxofaOZHHaJpneqQiV516jBrPS2f0Jc61K9CEvWzE5vVJPcWraltu3bUulkjqmnG8i+sQv22J6psyH1IR7/vS+7WZuTgPYpmzPuF5k4dRm3qN6H+886+OFKigMxLtOTjPtTWyZSEijQEErJx60wDpu/V8ruv+RTyfROSmPahrRpHvSkof7mVUke1kbKT+pvrULUR+zWek5RCf2xGuoaN6ZtrGp+sSm/TnKYSkli1oEn7HzJLVchidtDwOvrKOqLIm6VrP5p7PFLjC2gZxa7pxNqGhKw8P6Hfgwq+ulR9sapj2IzmBmkamUKberL49B2o+7yLGr/fmkF+CzuTnUREZs7e1KtPF+rY52vaE1q0hkkfrqfuFqwdC82o0dCV6vPvsunQcCsS6VanTt+dJWWzl0bQto9dlGcoCvWsyNGjO03aFKT6EpbD4XA4SgSKf9S67e0hTcTd4GRUaVQPVgWvczKjEBKlj7oNbEq8PpWlRCLgVgIMnBqjQVXtu87kT+8hJMMWrrVMiy0PZuJRcCAeZluiXmMXWJdrdp6F2FuBuJ8sRtV6bqhn88o73V6OLAl3/R7ByM0dNd7WDzBmPUFwwEPIqzdCIwdT7fuy5KkIvxkGeW13OFsWPBQ5ku+H4JlVIzibv1jhkSc9RKSsGhzLV5gVIjc5CpEphnCqbaXdzpchTUKYP3t28bkwdaiPhi61YPHaZj7Hlj418XnOQtw7Pka92V9NRcqt1DpajJw4RD41hkMNI41wcqTERCHfpjasiuSHpRUWguc2rqhjVizWzEcIDnyIbMt6aOxiXXJbQlYMbkWIULuBHV4s8rF0ou4jvYozahgVjS/jYTAe6tZFo2ol20PWk2AEPJSjeqNGcDDV/uQyooIQTrXQiOW/oFRyHt1CGGrDrYbmpx15eHovAA9ybNGgYU2UEh2Hw+H8Z3k3Yo3D+SeR+xfGOA1C3Pd3ceh/VcsWWhwOh8PhvGX4OMThFCMv4CyuGg3HVwO5UONwOBzO3w8fizgcyBB7wwchyXJAnog/NwaizS+z0LbUQ9g4HA6Hw3l38NegHE7mAQx16I/d+XZwcqwL7y9WYPFQl1c/o4/D4XA4nDcIF2scDnIRdX4Ldl3JQf0PP0bP+tqPeeFwOBwO5++AizUOh8PhcDicSgzfs8bhcDgcDodTieFijcPhcDgcDqcSw8Uah8PhcDgcTiWGizUOh8PhcDicSgwXaxwOh8PhcDiVGC7WOBwOh8PhcCoxXKxxOBwOh8PhVGK4WONwOBwOh8OpxHCxxuFwOBwOh1OJqdAvGAgEAvV/cTgcDofD4XC08aZ/HIqvrHE4HA6Hw+FUYrhY43A4HA6Hw6nEcLHG4XA4HA6HU4nhYo3D4XA4HA6nEsPFGofD4XA4HE4lhos1DofD4XA4nErMGz+6QygSQVgkHIHkMsjk6j/fMSIdHSAvDzL1328PPbh0G4xWdkD0xe04fT9P6fvu0udw/uGwvkPMuo6S/YWQXRJCwPoSuUyGV+1K9Fy6YbCqgWL76ftQtdDXwQxuvT6EZ5Vc3D+9Cxdj3l4rF+oYwdRYB9KMVKTnvuXeRKQDHVY6eYpk9FzQbXAr2CEKPlvOILx40oXXo3Fx+2mou71XQAwjm+qwEqcg9kkKctW+HM4/lTd9dIciwnKjCF6m02lNS8Ly1aELyKOguY1JrC38W3ZmPdZTRE4m3VnYTuv1N+qENjTuVC7Lbw4dHWmq9Hun6XPH3T/ZierQ1Mt5rP1I6dH6LqSrcc3gg40UJ1N0JX40q76o6H3ldkKyGXeKlC306Egy1Rqmgk7kQjOvM5tlCbSxp572MK/rxE1p9tVkypXJmeVEcmkmxYUco0VDGpChtvCv68x60PqIHMq8s5Da6YGENuNI1a0domEGJcO/uH6URpqWvP5yJ6Jqnb6hAyHPKFeZRTnlPNpIfc20heWOu3+Oe9O8ndeglIP4ezdx86bCBSA0Nltp/dvEoEZLDJy6GN/2rqp+tyuEQfWasNbRQzUHNpt+52hJ36AGWg6cisXf9kZV/gKaw3mBwBxmTEGxwRs2zbzgwmZ3KsSo36IpLBXtRWAEUxORyvtl/FvamlAPZpbG0EEGwk7vwaHLsdBv0B1fbT6Olb0s3/g+FqFBddS01oFeNQfY6as93yLihl9h194f0KehIZ4Fn8Nf5wPwJC4BsVmq6yX79ZfzKvdwOJUetWgrF4rgZbqClbX8B7SsrY72MG/FGdDAPWlsTpZHl6bUJtadq/zFVcmjS0dqYCEsFv4tOC0ra8XTNxi4h9LY7DHv0hSqLSp2P3fc/Zed7nu0Nlqq7Gfk2Wfos2rqNiusRp+dyWZtmyF9ROu76Ja8V4sr2db+oStrhX1qGC3yUvSpptRhxT3Kl8sp48/RZCPUcs9rOTFV9ehCHRtYKGbyb3llTYe8FoVRvmI1dWtfslbnRSgWK9MutV8v073KPdxx9+bdm+YdTjxM4TFgAr6YNBbd6ihmx0KYew7ChC8mYUzXOmw+LYRFM8Xfn6NXAzPU6foZflj4M775pB1qFM6y1RjVQcf/TcePC37BDxM+RI+BY9G5toRdEKCq1whMnDQKHWqKYODiBS+XRvBuU091nwLDuug6egZ++mkGRvdoCPOCEhBaoNkgZt/nvdDArA66fvYDFv78DT5pV4PN7dUIjeHccTim/LAIy5bMx4yRbWGvq76mBc30zZoOwNjOtaG0sqoXRkychFEdXVVpfjEB/dyNVDfpuKDn55Mw6bMPUK94vjmcfysiM5iZAOmJiciSNEYrLwOVv34LtHQTI/lpEmRCI5gYa66sGaJ2+6H4cs4CzJs6EO4Wqsasta11sFdeUyGAhedH+PrnX/DdmA6oWaydGdbtitEzfsJPM0ajR0PzYqszuqjVYTS++XkevurhwP5616TiyonLSJQLoFuzDhzUtpdps6Ezuo2ZhfmL5mPm6C5wVHc1Wv0NXODl5YJG3m1QT0cVrAChdXMMmfIDvp/UB40KO85SMKyN9kO/xJwF8zB1oDvUj6YYYtSwt2V9vxxRQQFIUm9GlEulzMcMTQdo79eFxs7oOHwKfli0DEvmz8DItvbq51D6PaYeA5RjzdhuirGG5cXcE4MmfIFJY7pCORwxDJ27Ycys+Vg0fyZGd3FEQTGxK1rrmQpDOHcbg1nzF2H+zNHoUli4HM4bRi3ayoUieJmurJW1gj0psmTa/qFiFioil5nX2fxHRklb+5Ae+7v2lEvs73wK9/Onp1LVHg2S59C9ZR0K92eI63xEm+5mqGbajPw762jlVcVeFw3YDHxdJ70iM2nFvUKbrrTQL5nU2z9Y3Jl0e+X7ZKWY0Ylq05RLLJ78cPLzf0ovkr9HyzoYKu/Xaf4z3dHckieXUuzB/6lm7iVW1jRn8v8jx2lXWN40YbPJdT2o+4Yn7L+kFLnKW7lPR9zoO7rJAuYF/kBsjFKmyx13/3pn8Qn9mSOlx38eZfU/nx4sbUNMK5BOiwV0Ny+Z/jp2hbWlHDo+ykx9jxm1+/E6pSj2simRU0bgL9TOWFRKW+tc2B7zI0Podqr6Rta/hC5uR0wasjhZm+26kPySZYX9izzzNq1830q90iOmuqMOUHSe6qo87xklsrDvdmUNZNh/Fz1nJuT5fUP1RS+x2bgdzfdPZb2s+lrOeZpUU1iqf/GVssK/8yMo+LZixUqBjBJPTaD6rH/SurJm1o5+vJ5SGDfJMyjwl3ZkXJCnQicm1+/8KVcup+yQldTVRuMNiMiRpl3R1q8bUfOf77BR4gVyaSwd/F9tEpV6jz7VmXpZOdYkb/+QjTUgkctMUi6KJm2lPnog43bzyb+gTrBc5pyfRDWVK32l1TPFNWNqN9+fXtyWQ+cn1VTXFe7+6+5N83bEmjSeTswdRR9//DF9PGIwtbEXlUOsCcluwjllZyrPDaMdE/pQ/7nnKIk1BFniZurFGpSiAU8485yJLSaSTv1Igzu2oY4tncjCug6NOZzOmlEeXf+hBdnb2ZK5btHXHoAetVt+n/Ll+RS5fQR5tphAR+JZB5cXQj95ipnYsqMJ55SpU27YDprQpz/NPZfErGMd0+ZeygYOnYbUfUBrqm1hSrZtf6AryvcsQTSnseL+ssTaSBIZWVOdMYcpXXHL9R+ohb0d2ZrrkumAnfSM5THv8lRiMzwyHrKPUln+HqrFm9Zy5o67f5kT1ZlKl5lIC1v5HW2OlVGe79dUlwmRml+cp9xcH/rhhzOsLeXShS8dlOHFnnMpKFdOWQGLqKN9XRqx5zGbYGXQqfE1SmlrLyZvciY89kzqTf1/PE9KrRW7gd5X9C967Wj5/Xx2PZK2j/CkFhOOUDyb2eWF/ESeiomTcS/axGxjIzxd+HkI9Zt6mB4r3ty+S7Fm0JC+PMUmnEyu3GeCVvclNluOOERprD+JO/AJ1bOqRq6tG5MtEyGl+Zcq1uS5FLbzCxo8+jcKymIFyybky9vqahFrYvKcG8QEWBYFLOpI9nVH0B5WSPKMUzS+RsntKELrPvTHwzzW6zLBFnWCfuhmr/4YTURGWvt1JuAbdqcBrWuThakttf3hiup1d9Acaiwu7R7RS8SaJY04xISoNI4OfFKPrKq5UuvGtkrRVVY9g+UIOsQSl8YdoE/qWVE119bU2LZkHrn7b7o3jeZ67ptDZIOu32zAxo0bsfGPVfjUQ7Es/XKkUtV34dKAjfhhzUHsXbwFV3KZDjKtgZpWQogbDcP/2poBqccwc9hs7Dx7CWd9HyA5MQ4pLJyCvPREPHkSh+fFv/3WbYG+PWpDLL2HnUu348a137DmSBzkknro2r0+CyCFKnkpAjb+gDUH92LxlivIZUVkWqMmWPIs8ts4vucyIpNTEXdtN07clbK+qSac6hR7X6AFWUYi4lJylU+RGYnEJ08Qx4xMP38KVzOZDm3QFE31dVCvYT3oUwqu+tzgn69z/jMILMyhGOtz0q7ANyiHtYeWaGlmAM9mrhBE3cTlmEzISQAjUxMWWgdN+/dDA518+G1ZgfMxYdi97TSeEQvfrmUpbe3FmRJSv/WYuerQi/7FsiYczISsi+iLHrXFkN7biaXbb+Dab2twJE4OSb2u6F5fzK53Q0drIaQPt2P2dzuwb/ki7I1kfcC7QFQdA1ZdRMj9a1j0nhnyI7bjm0VXgDJtlsDIwgy6iuNQ8jORmhSLkMuBiJMLS/FXp6WN/GtYP2MFdv42DYtOpjEVUxPtOzVUvlIsgk5T9O/XADr5ftiy4jxiwnZj2+lnIANPtGtZ8osFeeJBTOgzCfsf5EC3Zld8e/gSdo50hBgyZJTSr+fdPo49lyORnBqHa7tPQNUNO6GOTun3lInACBZmusqjYfIzU5EUG4LLgWxseEk9ExpZwExViMhMTUJsyGUEllmIHM6r83bEmjwRZxZ8jnHjxmHc+MnYGJSvvvAyVI1MnpSIeIVwystAhqKhCfRhoC+AcRMP1GXTLmngWZx+WsFGYeQMZzsRSB6F8AeKDjYfDx5EsQYpgoNjHVUYZfJyJCXGK89Fy8vIUAomgb4BWPIMQ9QfOB8HbkSxjiIEc5oxEcpsMzZ5uVgrDXkSy8uNXNZfuKKpqzkaNnSAONsPPpfUn0NxOP8BRKZMrLHeKDcrHld9QyEz8EDLFk3QzN0YmcE3EJyaiRw2nBqbKj4ZNUKDBg5QHOJh33sBtu3YgY3jm0GPXTewslFFWAby5Kd4qmjguelIVzZwI5iYMCHo7Aw7Fqk8KhyqLuIBHkSxfkbkAMc6EpjWqQVrpk5k90NwS3Gf7Bmepaj6rLePLqxZ+kZP/XF4zVfo1u4T7Hkif4nNIjz+8yCupAhg2/93XDk8Cx1sFfJKXop/GdBzPE1U9LnpuBsazaa0IlStXu3Fft4CjBqggYNiX4g9ei/Yhh07NmJ8Mz1WxgawslF+7luCzKC1GNjyPUw5HIV8sT36Ll2LsbXLsMewPgbOP4AbUclIDZkDVTdsjFfuhukx/jx4BSkCW/T//QoOz+oAVXGUXc/kj//EwSspENj2x+9XDmNWB8X+Ow7n7fCWxFoa7hz/DevWrcO69Ztw7qFqxazcKN+4MoroMdZRGxtCJGAdU3oqUiuo1YSGBsqZJGT5yFVqR0Jebh77VwCJ4uBaDbQmz5phzeGbcXrbdHS3DsfW2ROw9kZ5RWgZyJ/g9JlgSEW10KRZa7jV04U05AIuPKtgBjmcfzAiczMYCwlZWem4f8kXj2AN93Zd4e4gQ8DFK8jIzESmXMgmRiasMRvB2FBxSK4QFo4eaNq0KTxqS5AY8QDhUU/VMZaDYv2LoYFidUXRReSyqRyD8pCbxzoDgQQ6OkLo6yu2sRNkOTmFq94FfcVbRxaBVd1qoHbj9vjw82U4/0ShzIQvtVkWthJDB8/D+TgxHHrMxdG/FqCjGQtfiv/LIeSwflOBQFhy+BAaGcNQyCwSWsDRoyl7Nh6oLUlExINwRD3NUYcqiTzpKpYM+hA/B7CSNWmL/r01PwjRQFQTwzefxrbp3WEdvhWzJ6zF63fDMoStHIrB884jTuyAHnOP4q8FHWH2snomC8PKoYMx73wcxA49MPfoX1hQvkLkcCrM2xFr2iAZZDJFJyKGRKJKVltjLx1CanIK8kgAUTV72FdwCiNPZbOwfCbNxKawUEzhWdbNLExZQ5QjJTlZFagshM746LOesMUDrBnaA5MWbsON+DchqGQIP3UG96Ri1GvTD26sjwq/5IOoCupbDuefjJ6ZGfTZRCwrPR15/pdwPVWIBgMGwVUYiosX4iDNyEBWwWtQNhlMSZOyHiEbZ6c1hrOzc6Fr8L9d6hgriqJ/SUU+S0NsaqFc5YPQjPUVTHjIU5CcLEVaSjpkiuvmVVTnvimG8Yp0YW8c+UtsVnQicsSe/BadPPtgVXA29BuOwZSBtqz30+6vEH7aKcirCBbqfvP5s2fs36LI01KQJmX9fPZZTGv84rk4OzfA/3a9pJ/NCYWPbyzkAgEsq1RRexZF5PwRPutpCzxYg6E9JmHhtht4eTfMBLZMxv5l5SSRqAY9gbDo4CePxclvO8GzzyoEZ+uj4ZgpGGiT/tJ6Jo89iW87eaLPqmBk6zfEmCkDYfu31gnOv5V3V63kSUhKYQ1GoIdaTg6syevDybG6ctm4vKIt44YfbjPBJXYbhE9aa85g5MjPy2eNCkyAWWrvcDKDEBSm2NxQH81bKmbnlvBsUgdiykLwjWB1oDIQV4OdDZtlUQqePmNTOZENrFU9NsrxK1xK5Pl5rGNl/2FmAUuNe6S3TuFcNKFql+7wFCXgik/wG/gpHA7nnwITAOYmEJIUWZk5kGddweWbeTCoWQtVnlzBhftSyNPTkMlEicRYsWctAzdv3oUUhvDq2QOsWZagtLZWFplBQVB1Ec2h6iI80aSOGJQVjBvB+ci8cxuRTP+I3dujgzUb7K2aoLGDsgeDYjHp7+BlNhcgY6Ji7d7bkAp0YG1bpbDjL82/ENa5Kf1EddHITZcl5Ii2XjUhogzcDghVreZpknETNxWbyAy90LOHzUsHGD1TxYG/aow90LlVNVYPshEeFsU8Svbr4mp27HkLQClPoeqGrQuFs+oRaBsL5EhKSlEKbb1aTlA8Mn0nR1RXDT4aNsqYgF2LvbelEOhYw7ZK1kvrmRIZE3pr9+K2VAAda1tUeVmmOZxX4B1Wq2xW8UMhJQmafLULh/f9iZWDFY2ZdcC6OuUyRHZ/C1YfSYBcUh+TDl3HmT3bsWveh7ASShEREcOamgT1x23Bsa1T0cFYfVMB0jvYseUy0gQ26L9wJ9as2YrvuppA9mgvfjuQqA5UBvn3EHQnAyRujHGrluPntRvxRTPVjg2hsHzLfNKICCh+PlBSfxy2HNuKqQVG5vnj1IUEkKEx9DOu4pxv6a8LOJx/HwKYK36+gDKRkSlnY2siLl1hfQUbZJ9fuwD/XHYpPROKXZxCI8W+JylCN6/HqWTApv96nD+8DgvmL8b6nSvxsXqvU8m29vLzr6R3dmDL5TQIbPpj4c41WLP1O3Q1keHR3t9wIFGOvKD9OHA7FwLTHlh4/AD2HV6AHmZyNgFVvXL8O3iZzWb9VuLU3jX4Zf4qrBzTGGLZE1y79ABGpfiXWNDX01WeV0eojdGbT2A/y/e0pjqQxx7BthPPVWE0kYZi8/pTSAbrZ9efx+F1CzB/8XrsXPkxSm5DM0SPtWF4HHYD50+fR8Dd05jeWAd5d3/H8gOK19kl+/XWj4JwJ4NN2BuPw6rlP2Ptxi+g6oaZ6FLGr30syL55E6FSgqTJV9h1eB/+XDlYKb4EEl3oCM3Qb+Up7F3zC+avWokxjcWQPbmGSw9yy65nZv2w8tRerPllPlatHIPGYhmeXLuk2jvI4bxp1F+FlgtF8DJdWeesMSes0Z823M0gmVxO+c+DaOOPm+h2nuKr74/JuNhRF8oTxvX60Q7lgUK+9LWzYpsni8Pci77c5U9P0vOVn3vn3Pye3NlEUmTfl1bfTKJ8Fpxyz9D4qqJiR3ew+MS1qP+qq/QkS0ZyuZRSbm2j8Z5mqnNxtPwCgV6/HarzjHy/JmcRSNd1PB2IzFbemxa6jb5ff5Py2P8uTq710qM7lOmL7Knv6puUpDKSzoyvqvJnznzUccqWy+j5geFkpfbjjrv/htOlTutiSCqNotUdVL9QoNN6Dl28d5s2fWStbJ8FR0TkhfyovkdI1t4z6cCd56Q69kxOecn+9FMbdb9Toq3Zlqt/EdfqT6uuPqEsGetdpCl0a9t48jR7cRyDXqPP6UBEOklZH/A8YC3NXH+LpZ9FB4aqzmJ8407LOWvFXek2i6nR5DOUoCwgVj5JwbTrq9ZkKSzNX+OoDvVRHKJ6M+gaC5f15/f05cHHLK+sz409R9+3Lf4LBxrnrAmtyXvmAbrzXHEkhyKJPEr2/4na6BS1W3Fc0pBNYfScxa/4X35GHAUfnks9a73IZ8l+XY9cxx+gyGxFXtModNv3tF55MOVFmlxL9QxL3sPKQliD+m+4SxmKMsp/TkEbf6RNqsGHPjZrRJPPJKjqEbM1KXgXfdXaUjUulFHPxI0m05kEVR7leUkUvOsram35oq5w9992b5o3K9bK40SmVMO5NtkYvmalFhmTjZ01GTGh9sJfTKa2NcneykDd0EpxupZkX8Nceeim1utlOZERVa1h9VpnoIlNbammvRUZKA9dZE5oRf23PyGpLIF2DLAoEZ477rgrzYnJuKo92dsYa23PJdpaOZ2upT3VMNcujhQ/aWRT05aMFB89ar3+97jSbBbqmpNtNQvSK1YGpfmX7gzJxqEaGZc332JjqmpvTzbGpZWj2rFwNtXKekYl+3WRUVWqYVXWT49pGwtEZFrDmWrbGGoZH4Ska25L1Sz0Shk7SqlnQl0yt61GFnpcpHFX1L1pBIp/WMTlQlDezVmc8iM0R/MvtmL/L+/D6u7PaOc5E9cKPjXjcDgcDofzj6MC0qpccLH2tyKE9ccHEPZHL5hmh2BJj7aYcj5VfY3D4XA4HM4/kTct1oTq/+f8LciRdOkiAh9fxeIB3TCdCzUOh8PhcDjF4Ctrfzs60NOVIif3TZzZxuFwOBwO5+/mTa+scbHG4XA4HA6H8wZ502KNvwblcDgcDofDqcRwscbhcDgcDodTieFijcPhcDgcDqcSU6E9axwOh8PhcDicdwtfWeNwOBwOh8OpxHCxxuFwOBwOh1OJ4WKNw+FwOBwOpxLDxRqHw+FwOBxOJeatfGAgz8tAanoexEamMNYVqX3/LnJw98ROXHkCOLQfjvcc/257Sifn7gnsVBhasy1GdnJW+1YiZHnIgw50KlKEr3LP2yDnLk7svIInqIm2H3WCs47an8PhcDicSs6bXVmT+mOOlwX09U1gUcUSpoYmsHXtgSk77iBTHeSdI0+Fz9KxGD16HFb55qo9KyNypPosxdjRozFuxRW1XyUi5RjGOJvA3HUqLuSo/V7Gq9zzlpCn+mDp2NEYPW4FrmSrPTkcDofD+QfwZsWaPAcpSenIgxHqdhqA3q2rIfvOcSwZ0R0TDicxOVIesvDIdzcWTp6LQ/H89zIrC/Ksx4hOzENObBSelFPsvMo9yHoE390LMXnuIbz64/876xCvvxwOh8N5s7ydPWtCW/T4fisO+PjjwGd1IZLFYM/6A3hanrEr6ygmdxmMaStPITyLHwFXWRBW+wSbfE7g1OX1GGSu9nwJr3JP1tHJ6DJ4GlaeCscrP/6/sw7x+sv5zyFD/Nl5mLY2GH/zAvrfSC5u756DKXP246FM7cXKJXL7THy7PxJ5ah8O51URfc9Q//frw0TZX2s349pzc3iNHI/ONQxRDUHYsCsAaeL6+PBTTyTs/w17zgTiuVVjOFkAz2/sxoa9ZxGUYoXGVSKx77fdOHY6CHFyHRiZyBEfmY0WTWqpEyhAjvT757B742Zs3XMU5wNjoVOzPmqaitXXNaBM+G9biuORAtTrMx2D3HIRtG89dp26jgjURsPqhhAgE5E+e7Dpj2046p8MS5f6qKpPSPZT2HYGfo/10KB+VeiwJnf3yFrsOHkDT82aoG6VolpXnuyHXRv24qxfLAwaucBGAuTcOoi1O0/B/6kZmtW1KMNuQqb/Niw9HgmBcy98M6QxUm/uwW97ziDwOSsbVWFhtyL+oBRYNXaEhTr5zEgf7Nn0B7Yd9UeypQvqV9VneSqGPBl+uzdg7/l4GDkBNzetwe+HA5Ft14jlQ7WBS55+H+d2b8TmrXtw9HwgYnVqon5NUyhLNesOTh3xw4OoNJi614Nlqp/SFp94Y9Q3jcSe1bsRVaM56ppplEkZ9zhLAvD78vU4cCUGklqucDAVIsWf5Xf3MZwOioNcxwgm8nhEZtuiSS0zZXSZYSex+beNOHA5EtnmteForSWfKf7Yo6UONXdOwralxxEpcEbPUU4IXb8S289GQFTLHbU0bc6MhM+eTfhj21H4J1vChT13/RKJqMi8fwIb1/2BXSf8EC2zZeUYiUNl1d/MMJzc/Bs2HrjM8mWO2o7WyrgV9abUsqyAPf9o5CmIuH4JFy744MLFK7geHI4EqSmqVzdj7U5F+t1zOH75CfRq28O8sKmzMr75J04FpsPFuRpksX44dsoXt0JDEVrC3cMzVqdrWrCG+Y8iDwmBR7CF9U97jpyDf2QmTGs7wka/aP+DnBhc3LYOv+44jisPslDFyQnWetorS07kZRz3Y/1IbRsYvFZ9kiP2yAR06b8E1/MboefAprAqZlZefDBOH96HnbsO4UJQDHIsHVG7im7JtvsukeYil8QQF7P11cnAsa974durtTBkTEdUU8Qrf4w/53+BqT9uRWj1bujVuAoq745pTqVH8YHBGyP3En3pLCaInWnylVylV8aegWQmAEk859Kd3HBa0EpCEJrTkP3Z7KqUQn9qRhIIyWLoAcp48At5SZhqUSgXtRNVH6OMpwi512h6fZZOYTgBiWx70+8RUnUADWTxtKaTDgujS722ZJL07gJqbSAgoVknWvlAEf45+cxqRkwrFMZl6D6NfNKIMo+NomoiZkOtz+hcDguaH0LfN2H2S9xpdlC+MvoiZB6mj22Eyvx/dVmR/1zynebCugQJNZ4d9BK7ZRS/phOxgYl0e/zB/pZS+IJWyrIxH7KflKUV+hM1Y+UjtBhKBxQejOc+s6iZKUtTHafA0J2mKYwvjlRd9mInatHMikTsmSjTr9qLNkQq0s+la9PrM1sLbGNxiWyp9+8RzBJFMa6hTjrMX7cH/ZHColM/K0mzQTS4ni4JxPVp+jXVMy+gxD0RC6k1u0dcx5M8qoiIddZKG3TrTqKzGVJ68IsXy++L9NlcgqqPOaWIieJPTCFPc6H6HmabQQP6/Hgiu1KUArtexKGqQ4W2iGtRowYmxPpSdo2l7fIV+WSqb37uQ7OamaqvMScwJPdpPqSlNCnN52vyMCkodxZP+2UUEVZ6/ZXFn6ApnuYkVJY7cwIDavD5cUpkGSi1LCtgzz+ejM3UU5fVR30zsq5qQ5ZGEhIIJFS1zdf0Z5ziKUvp9pymJNHpTGsTVLeoyKHjo6qRuNoo5V/ZB4eTtURMYjFzIlZfBKyti9R/iw3Ie3l0iTpTqZFG096x7mQmEpFhVSdycbYlI5GAdGoOpC0PNfq79Os0r10VEknMyL5uHaqiKyQDl0/pYGzx3Mro2YW51LEqKw/nL+lS0SZbYXJvLSZvczHZdFlGQQXtqJBcCt/5KbmbsbYuNiI7Z2eqYaZLQl0P+l5b//lOkFHcH33IytCL5odplN9r85x+765LkoYz6YZm1rJv0eoerH4auNP0C//Klst5R7xdsZZ5i5Z0YgMUxOT0xUXKKRAMpYi1bGk6JYSvo55GAiaImtFs32h6HJusirsIuXTr2G66FJFEKbEXaLaXMRvEJeT2bQCV6AI0xdrmODo6qgYTKgbUfG4Qi4XpL79vyE1HQPqNJ9OZ6Hu0qb8du25InVbHEKXspkGWbECWtKIF4axhp22nviZsQHFQi7cSJNHm3qZsgNCl91bHkkyWQOu76DPRU5smnFfcUJbdryDW8v3oGzcdEug3pslnounepv5kxzpyw06rKaZEHx1Dy7wV5cA6eueBtHTHevrEldnGno3z5CvKssi9dYx2X4qgpJRYujDbi4wVItvtWwpghVpceMlillF7xd/MXoFBDWo15Hs6ElW08ytxz+MV5K34W6BDzoNX0IE935C3BStfoRUNP5RN0vQECl/Xk4wU6TabTb7Rjyk2mZVbtg9NdBKzDr8WDdnkR74rPiAboYAkjWaSX/EHXkodKrRFIKba/ZfRwT2zqD0TfxDa0qjjysIkv2/cSEegT40nn6Hoe5uovx0bZAw70eoShfmMNvViz05Ulfr8dpcSnwTTpQD2vEutv9nkM9GJxCztWkM2kZ/vCvqAiXqBpBHNZBnQXpY5FbDnX4BSrEmo4cwb6jacQWH7x5O7gYiqDTvA/i6fWNMk98pkcmYiod/OEiriH0Qm+S36lCZvC6HnyseeTzF7h1MtJj4bfH1dXVb5dPunFqQvcabRR+KUk6u06z9QKxMxOXx6olDc58ddpd++6Ey1DSUkkQhfX6xJH9CKjmYkqTmCDsSXrJPZft9RU0Mm5Dr9ROdj1R1mfgIFHPUh5Tz5b0FGj1d4k46kxbsRawzZsxM0rq6EdN1n0TWt4waH83Le2CJwEWSPsefztnB1boEpZ1IgqfMRfpzSCrrqy6UiMoK1rRl0levjOjC2toOdrbbNTjpo2H0AWte2gKltCwzs5gIxpIh+EFHm3gB59O9YuOsxRA0+w6Iv3ZSvNf337sOdPAmaDZ8Ib/u6GDi0E6oIsnDjgi9g7I3OXoYQyO7A3z8befdu4162AGZe7eGpNTNmaO/dhOVTitCAQOTnhyDwbh4EFq3grbzh1ewujTz/vdh3J4/pguGY6G2PugOHolMVAbJuXIBviQ39EkiUa/AStBjzMyYO/hS/TOkKE4EUDy+dR4SMWdewOwa0rg0LU1u0GNgNLmJAGv0AEdqM09FRvR4VmuP9ZZdxcft3+KDmSxb5xWLVawBxE4z8bjz69J+M4a10IZCn4lH0UwiMrGFrpn49omMMazs72JrrIvfafhyLlEJcbzC+/MgTLUaPR09bIfLvncTxUKki9AteVofEzTBm3ufoXZh2EqKjUiDP88fefXeQJ2mG4RO9YV93IIZ2qgJB1g1cKF6Y8gwkp+QqlB8khqawrOaK1o1tISwt7dxr2H8sElJxPQz+8iN4thiN8T1Z+Px7OHk8VHtZ2gaW355/JYZw/vAnfPGeHhLOn1T7/RcxgOfk9Vj0USOo3taLUaPHAHSwIjx+GKXqN6R3sGffTciafYLp71dVtjHjZl9iYjcTPDq8C+eUn+LLEL55KqYfyIb3T0ex9ANDhedrkXNpJVZcBDrPmoteNsWGEvlTHFiwGkEGPbFo89dob6vuMMXWaNyjHTRPUMqJv4WzO1bgh2kT8emIwRg4aBg+mfQjDt4v3PzFSMftA0swc/wwDBzM8rniBCKy1JeU5CJ0/zxM+XQ4Bvb9EP2HjcWstWcRpbGJTv7kDFbPmYNlp2Mgl8fCZ80cKHYBKdyPO4PUoVSk3z6AJTPHY9jAwfhk+gqcKJoYQ46UkD2YN3EEBvT/CGO/+R3+z7RvyhZadsbceYNQ5fZ6LN7/tJwf2nE4RXk7Yo01nMSIh8iwaope45fgxIUNGGD3ZpPKDN2NGR96wsHCFK6z/ZDPhs7s9LQyRI8Mods24mqWAd6bNBlMgzEycOdOFGRscI05NA1DhwzByDV+yGFxZT1NULQydOzkCV3KQIh/CJ7fvo0oqT6atW8DA9lDLOtgAj09PZUzsMenf+ahWof2aCCW4entIEREB+F2nBwGzdujtbpvrLjdpZNx5w6iVMZj2tAhGDJyDfxY50RZT5GQWrxLEECgFBECmFtZKx+8iYsL7JlKkD+JQYxC82SGYveMD+HpwMSk62z45bO4stORVopxyujE7ujyfvVyVyTlPaxcrasqemsdGBkpOnFWBlnZ7F/tZNy/jycsn0IHRzgpVI3ECU4OLEVZFMIjiom1lyG0gJWVIm1dGBur0s5ISwNl3MGdKBmzLwaHpg3FkCEjsUZVmHiakKq8tRBhdbzfpxXMKA57R7VCr5/OIU5zXClOxn3cf8LiFjrAUZUBODk5sDKTISo8QhmkRFlWxJ5/LTowNNRhs5JXaR3/XmSP7+F+ihAOTk6shBjpAQgIIzi0aIUarGrLpFImCAzRyssNouQQBIQr2ogI9SadRHTERWyY1AZVNMTSq5GLK3sOI9q8O0YOqlGy/WdfxgmfFFh0HYrebGJVKvIEbBzeFJ2Gf42Vu88gMDoFWRkJuHf5OpskqnuE3NtY378Jmg+ah4N3U5H7zA+bpnyAFj2X4VZh1SBEXjyCKw9ZW2aTn/zoM1j1eVe0Hr4Nj9RdoTz5Ns4eOYyTQUwwUTJunz6Cw4cPK91R32hVIMWHAuv7o0nzQZh38C5Sc5/Bb9MUfNCiJ5YVJiZH0l+T0c5rMObsC8az9Fj4bf4e6xUdplaEsOwxFoPqpOL0vpN4rvblcCpCecfYiiGqg89PPEJkoA8OrPoC3nbKdYM3hix6C0Z0GopfjifCcdgcrBznyYa/lyFFZPhD1syyce3YCSQoGrA8A+mZctbM5UgOvwl/f3/cjMyHdR0nODpYsQBC2HV6D25MfD0M8MPl4HvIFbuiXbsqEApM0LD7CIwcOVLlPh6M1jXEEDt3RLtaYkjDWCcZcAthMgkat28PCxbbq9ldGnJkpGeyTkfRCYXjJrPd/2Yk8q3rwMnRAVZ6L3+0AgN95WonSfORL43GlhGdMPSX40h0HIY5K8fBszzGCQyZ4KpoNWLCUfn/5blPjswsxSoWq1YSXVV5CXSgq8NioHw2jr/qPLVo2vKMdGSqChPhN1lZ+t9EZL416jg5wsFKTx2qABHqTtiGnTO9YSuNwrFvP0CXaWeRor5aHHlmFnJVGYCuKgPQ0dVh/xLyNYWIRllWzJ5/KckXcNovHToN3NUeHOSF4fevFsHXpCcmj3NTrsjK4mORkC+AlY0NMk+MRz0Ta3ReHgaTqlbQkycirmAmoWcEozfVFcsi4HsjFmKP9mhrrPbTQBb3AJGpAjg2bAR9tV9ZiJvMxMXIUNzwOYGjx07h8s2jmNJQmTvcW/UZphwm9N8egFvnj+DQ6QD4/doTogvz8cvRgomLHnosvwbf04ewZ+cuHLoYiIPjayPh8K/YwyY9CsSNvsAB1o5OTvWAWNQQnx/0R2BgoNJdX9FLGUZ2bxU+m3IY1H87Am6dx5FDpxHg9yt6ii5g/i9HlWEgvYklU1cjtNrH2M3iO3fyPAIiAjG/VRkdpo4HOraxRuZNXwRV5uM+OZWWio6yr4dABJFIMchKkZ+vGmRJXtHBVob721fjSBzgNH4bji2fiqGeVcuREQncJn2PftbA8xOrsP4Wm20KTWBmImaDpj46LgjE/fv3C92dPwYp7xI5dsZ79Zj4uncJ+4JjAMc2aO/ApqVCS7w3eSXWrl2rcmt+wfBGrHPRaYwOra0hyLwPn7P3kCKqh3bt7dnwXlG7BaysRMoBXZqfzyQLg+Sq/1cihImZCcSsOPU7LkCghu337/yBQQp1WApymarzkiUlIYXpAaGpOUzCt2O1yjhsO7YcU4d6ouq7rR2lIISphSkkAlYOqclQLhjKU5CcqjDcDBYWr71EoERoYgYTVWFiQaBGWd6/gz+0FaawGrrOPY0bBz+Hm342m40vwu447XVZaGoBUwl7ktJUZrcyA0hJTmVPVggzC+0PqsL2/CuQI/HiOnwz42smRAajfdMB2JDQCJ9/O0J9/T+OLBp7x/fGF38ZY/jalfhI+ckh6xZy85DPegpdfT1kP45GQk46YqKeQa6nDz2BYkKjmCm8YaSP8CgeqGJfEyZqL00oK5NNiwXQM1B8bf8ayMJxaJ8v8jxH4ov2hkhlfVZSUiqMOvaAl0Eyrl8KVgdUI8/F89goRCcI4OntCROKw+MnZS17ayJD+KF98M3zxMgv2sMwVZFWElKNOqKHlwGSr19ShpLe/RN/3QPch09Gj2rq/kenCqqYltVhilGrVnUg8TEe8YVizivwbodjJnAszZgAoRw8fBDFmkY2HoQ/Zv+vIdqEEuiwgQ1gA3KStk5GitgnCZCTAGZWVZgEkyEhUX3gbpm/nCVEzcafYWx/BwjzgrBh+Z9gTR4eHop9Y5m4euSYarWtOOJG6NyhJgTxf+H4DRlsWrWHW8FZAloxgFeHljCR38fJE/eBaq3RXjlDrKjdQlhamkHERErOwwdQTA6zH4TjsaqwlPcZeXgo95VlXj2CY1qN14YMYUGByGL2hJ2/hGiZAAb13eD47AnLP0FgZoUqbIIoS0hEkso45arWu0Io0WHCjP1HSjIKHr+huzvqsnxKQ6/DN431x0k32ExWCoGBGzzdtMxmX1qHtGDkAQ9VYeLIMfac1N5lI0K1ruPQnz1fyktEnGLPira0Dd3hrsoArqsygBsBEZAKDODm6aYKU5xXsuefjhwZkb44c+YcfO+mwOb9mdh99Rx+9lYd3fICzdJQlPG7rKF/E/InODS+Oz7ekomuqw5hTR/bws5bYGTIeh1CZlo6bEb+jvN/ncOfc9tAnJ6GTNKHoeFryaVSkEHGHoNiQqkNxWTDmPVdqcnlPQy9FKRRePhIjryr36CxNRNEVdTOfhQOpsmR/OyZOlw0js7+EI2rmcLSrhYcqprAfOBuNhmVK+0sH1JEPXwEed5VfNPY+kVaVewx6mAa5MmqtGSPHyNergcHx5rK/YHlRSJh7ZlYuVVw5waHo+Adr53oM3FUH2I22wtYMgi9+r2PCTsVAxEhn80OlW1KXAd17FkTyA/F2uE9MGzhOeWdL5CgnnsDGAmkCFz7OSZ9PQ4jl/mxZsZggq/sOZQe2vzvIzSUyBG7dzm2RApQf8QYdLYAEvaOgXevsZg2YzLGDJ6ATZEFMemgaed2sBFkIj3bSCnEXvYSyrR9BzTVycKTJ2kw8fJGc+Xe2orbrc/EWH2xAPkBSzCoVz+8P2GnUlBSfi4Ub//E9UdgjMp4jPHuhbHTZmDymMGYsCmyjHKQ4sFvo9Czbzf0XRSIfIENug/uBut67mhgJIA0cC0+n/Q1xo1cBj+VcZCXXahvFHGdOlA9/rUY3mMYFp5Lh7jBEAxvbQJi+Zw6eDzGD/sBJ9NEqNF/ND601lKFX1qHtCCujxFjOsMCCdg7xhu9xk7DjMljMHjCJhRWhUJSsG9CZ/QfPx0zPp+A9YFSiOxaoI1iP5q2tMUNMGR4azbLZ3FPHYzx44fhh5NpENXoj9EfWqvjLEaF7Pm3IEbtjzfj2g0/XPU5gd2rZqBfI7PCTko12GUgLU1TnMmQlprJbi3jFdQ/nkz4zRuIkX8kod3iY9g2un6Rj7VEtrVgb0h4FBmJfHFVeHRqA0cjJjwiY5AnrI5atVi5vWlE1rCxBJIT4rXutxXauqCuFeGB/w0kv45aEyj2BAtg2OlnXFZs9Sjmzs31ZoHkiP5tDIbNuwjDwetxLiQC0Q/v4vIvnWGqRacKVJt3tcyRBcr9xwLDTvj5csm0/M/NVYUyNIAe68ezsyryPlOG+PinbHCwglV53gtzOMVRfxX6ZtByzlpxZDF7aFQ9QxIKBCQ2c6OPZ42gBhLFcRUb1Z+YSyl633hqYiEm1qRIp+NqpW8RcoJpdZ9apMfiEBm70EfffUpNFOdUtVlEyiPDNCl2zprivLEl7fRJIBBT3a8uUTbJKOHcT9Snvhkp3lSxpkgScw+aeVHD/uQN9L6e4my2PrQ5Ue1XFtJQ+rGZRHkuVrdf41kKasq0u/jRHQxZDO0ZVY8MhQISiM3I7eNZNKIBi1e3B21Uf48vSzhHP/WpT2aK94TsXoHEnDxmXlQexVGEwnKQkFunTmTHwgt0qlK7WWcoQWlgDgWv7kO1WD4FImNy+eg7+lR5plwbWsQKtcQxHMX+1sbL78mmvYPNlMeXtJgfpjxyQHGu1L7xTchCrMiPDnVcHafwpfzIPfRZy2qkrygLkSk1/Gg1+anOMtBCyTpUrrRlCXTupz5U30yivA8CCZl7zCTNqqAkP4QWdbRW1RcWxsJ1IC2+9Ez9nEupv/mRtOezllRNX3H2l4hMG35Eq/2eK+8ptSzLa8+/gRJHd5QkZfuHZCKypWEHNAopP4C+cZWQpPk8tccL/h1Hd7B83PiWGuvpUv2Jp0nbQUYke0yr3zMgsfNXdKngaAjZQ1rmrU+SelPJt0R9yaRd/Y1f8+iOdNZ+LElS6/NSjjFKp2OjqpPIwJNm+5VR/up+SXkOp9aTNJJoe19zElftS1sfl9bec+jEJ3YkMulPuzLUXozsoyPJRlKbJvgUzWT6lt5kIK5LU66WzHzS9r5kLq5Kfbc+ftFvFydpG/U1E5FFj98oujBQ6Ud3KJFG0KI2uqTnvYyiSo2YwymdNyvWyos0hWLCIig+o4xam59CsVHRlJhZWhgppcfFUOIbO7cmn9Lioik6Pq2Y0JFR4p4hVE0kJOvBu1nX8bpU1G4ppcSEUUR8RumdByM/LY6io+MprbTOt4hozaDM+If0JKVk7yhNj6OYN1eor0x+SixFRSdS8cef8yyaYpLLOcK8tA6VQn4axUVHU3yphalARjnJsfQkSSH3tVBa2jnPKDomuaSYLoty2fMPpxxiTRa/lfpaiciw0SjacPEePQz3p30z2pGVSJ+a/3RLHeoF/w6xlkOnx9qTSM+TJm49SAcParjDPnRPOWmT0bP9w8hObEJNJ2yna6FBdPzHrlRNbEztFt1VTUQUZEbQpcOKe/fQ1230SWTXhxbsO0iHjl6nx1qFUtkk7ehPlmI7+vjwc7VPUaTh66m7lZBEVbzo8zVH6OqtuxR8+SCt+nouHXiibhcvFWvM7CszqbG+iMxcB9OcTUfJ55o/Xb94nLZvPEGK4y8VfWT4knakL7Kmjt8eIL8H0fQkJpJC1vQmCy1iLffqFKorFlHNPgvpyJUb5HfxMP2+94bqYuYVmtmYlY2ZKw2es4mO+lwj/+sX6fj2jXRClRgjgy5Na0R6IjYxHr2MDvhcpxtXj9JUNkEvTazl3/qRmunpU5tFD148Dw6nAvw9Yu0fg4ySry2m7nZiEug0ohm+f7+IeWWKiLV/9koD519IOcSaoj3GHJ5CbarpqlYamROIzcl1+G90S0uV/leINVkcrX5P0W5V+S3iJE1pzm310C97Rud/eI+q66pX2Fm5NBm9k8I1ClMWtYTaKlZwi8UjMPyQtr9KEWVfpK/qSUiv8Uy6qrGipUmK32oa7mFNOsq3FswJhGRo34F+vKLuS8sh1pjUoZjjs+kDl4K3H4p4BKRbfRQdLkg3M5h+Hdmc7BQr14V5E5DQwJVmFF9BU/wqxBjFr0KoygoCJgQ7LFVfZKnFHKfZH7gUvq1QxCPQrU6jChNj5IbT3q+8yd5A41dVBBKy7LCYbhevwLLHtLVvVRJXHUS7VK8xOJwKI1D8wyoaRwvyxE34sO7/cDhVH65fHcPFRd4wVV/7xyFPwNqu9hh/WoBeW5JxaJiB+gKH8w9DmozIW3fxOFMCK0dXuFT9jxxlUg5yE+8h+MFz6Nk3QsMaRm95U7IcT498ihb9tkE8YhfOr++t+k3MEuQhOeIW7sblwci6FurUqQqjiuzML4TF8zAMkYk5kFjaw7G2DQyLpSdLj0XEw1ikyvRgamkDOzsrGJaSVk5CGO5Gp0JgVhPOjjYwKBZXXvJDhEUmIkdiCXvH2rApnhhDnvEE98IeIwNGsLKvhZpWBsXKPAe3V/RGh8kB8Fx5FUfGOlboowQOpwAu1spCFoElnbyx32Mt9v7cHQVfaf8zeY5jM4ZhZYAALaftw/cdNbcoczgczquQiivfv48eP95GrXFbcXhZT+XBvBwFqfBfMQJ9p5yCwcc7cHZdaWKWw3k5XKy9hLycXIj1dN/1Z7McDofzz0CehIvzh2Ja2Ajs3TQINXhnqSYVPlN7YnbeF9iyuA8c3sJHuZz/DlyscTgcDofD4VRi+ByIw+FwOBwOpxLDxRqHw+FwOBxOJYaLNQ6Hw+FwOJxKDBdrHA6Hw+FwOJUYLtY4HA6Hw+FwKjFcrHE4HA6Hw+FUYrhY43A4HA6Hw6nEcLHG4XA4HA6HU4nhYo3D4XA4HA6nEsPFGofD4XA4HE4lhos1DofD4XA4nErMW/ltUHleBlLT8yA0NIWpnkjt+zZIQfDhA7jxTBfOnQahrf3rpJWDuyd24soTwKH9cLzn+Dbtfh1e2Fmz7Ufo5Kyj9q9EyPKQBx3oVLQIs8JxZtchXH6YCZNmgzHxA2dUit8+zrmLEzuv4Alqou1HnVAZi5zD4XA4/17e7Mqa1B9zW1lCX98EFlUsYW5kBGuXTvjsN3+kyNVh3iSyOByfNxajP/0KG4Py1Z6viDwVPktZXKPHYZVvrtqzEqJh54or2WrPSkTKMYxxNoG561RcyFH7lQN58hlMa9MUXT6Zih9+nIvlf8ZApr72dyNP9cHSsaMxetwKVMYi53A4HM6/mzcr1uQ5eP4sDXkwhVufUfioUx3IHpzFmrEf4JMdsXgbeo1TuZBnPUZ0Yh5yYqPwpNzCRobIP+ZgZWAaRE5Dse7keeyf2gK66qvvlKxH8N29EJPnHkL8O6+wWXjkuxsLJ8/FoXefOIfD4XAqKW9nz5rQGu9NWYOtJ67jwOdOEMsTcGzjAcTx8edfj7DaJ9jkcwKnLq/HIHO150vJReDNW8glMRoNnopRXdqgaW0j9bV3S9bRyegyeBpWngpH1hvfIPASso5icpfBmLbyFMLfeeIczqsiQ/zZeZi2NhgVWEyvELLI7Zj57X5E5qk9/uvI4nF23jSsDX5bJf7fIvf2bsyZMgf7H754n1PZ6pzoe4b6v18fWQz+WrsZ156bw2vkeHSuoQ/rtCtYuf828ow9MOjTDqimlIeZiPTZg01/bMNR/2RYutRHVX2BMgp5+n2c270Rm7fuwdHzgYjVqYn6NU019i7l4uG5jVi9fj/8s02ReWkXLsTqw33Ql+hdt/gOJznS75/D7o2bsXXPUZwPjIVOzfqoaaplJxRlwn/bUhyPFKBen+kY5JaLoH3rsevUdUSgNhpWN4RAq92EZL/d2LD3DPwe66FB/arQQR7uHlmLHSdv4KlZE9StUlQTy5P9sGvDXpz1i4VBIxfYSICcWwexducp+D81Q7O6FqXbrWGnc6+pGNJYD6k39+C3PWcQ+NwKjZ0sgOc3sFsRf1AKrBo7wuIlZa6JwjbFvefjjeCEm9i05nccDsyGXaO6qKLeq1XmM8q6g1NH/PAgKg2m7vVgmaqKzyfeGPVNI7Fn9W5E1WiOumbqMpE9wYXNG7H76EkEJxCMrWwgT3gGvWoZuLCllPsyw3By82/YeOAyIrPNUdvRGoqsvLCd3aN/G5uWrcHu85EQ13FFLXEUzu34Db/vvYRY4/poaGfAnmdRUvxZOe4+htNBcZDrGMFEHs/it0Vj6wfYtvQ4IgXO6DnKCaHrV2L72QiIarmjVkE+FGRGwmfPJvyx7Sj8ky3hwuqCliJWknn/BDau+wO7TvghWmbL6kgkDv22G8dOB7FJjQ6MTOSIj8xGiya1VOHDTmLzbxtx4HIkss1rw9FaX2l/QZ61l1P57ak85CI28BQO7d6OnQfPwj8yHUb2jqhqqChnGaKvHsaZ63cQGhqq4e7ifiqrrzVMQbF+OHbKF7eKXC9w9/CM1dWaFqzB/aPIQ0LgEWxhbXfPkXOsTDJhWtsRNvoadU9BTgwubluHX3ccx5UHWaji5ARrvWIPvDxhKoQcsUcmoEv/Jbie3wg9BzaFlYZZ8pRQHN+0Hpv2nUXwkyzo29ZGVaOCAHI8v3MWJ64kwNC5BkwLvePgf/wUrj0CqtW2gh4L9/jP+fhi6o/YGlod3Xo1RpV3uaU4KxwXjvnggdQGtWxU7U5FDmIubsO6X3fg+JUHyKriBCdrvRL9yguyEH7hGHweSGFTy+bV26I8FkcmdEH/JdeR36gnhjS1UnrLYq7i8JkgZJg7wc64IHLWj9z8E6fvyeBSSxWuYkiRm0sQi4vVtXJTWpsNxb1nunCpycarSkDGsa/R69urqDVkDDoqRcrfXOe0ofjA4I2Re4m+dBazJ+tMk6/kMg8ZPVzclnQEAjJ8/zeKlykCPSefWc2INUzF0gFz7Jr7NPJJU0ZA16bXJ4UkUV0DCUS21Pv3CJIqLlM+3dvQh+wlAtU1iSVZmQsJQmv6+HC2MkQRcq/R9PrMnsL4BCSy7U2/R6hiK4IsntZ00mFhdKnXlkyS3l1ArQ0EJDTrRCsfKMKXbnfmsVFUTQQS1fqMzuWwoPkh9H0TCUHiTrOD8pXRFyHzMH1sw+xm5fTVZUU55ZLvNBeWbwk1nh1Utt0advb4I4XdK6XwBa1IAiGZD9lPilKQhv5EzSQgocVQOqAslrLKvCjS8AXUit0rdmpBzaxExJo8QSCiqr02UKSy2Mp+RrL4NdRJh/nr9iCFedIHv5AXi0/SbBANrqdLAnF9mn5NkWc1uT40obaoMC6l0/GmZZfma71PFn+Cpniak1CgDiswoAafH6dEVrekEQuptdL21tTaTqKyneVVt15/+p93FRKp7xGYtKKfQ4o/Fyk9+MWLlaM6XqUTUfUxp17kSVyLGjUwIdaUVfG6fEU+merbn/vQrGam6mvMCQzJfZoPaSliSvP5mjxM2PMviKf9MooIU5XTi7RZfao+hoWWUfyJKeTJ6rkqP8x+gwb0+fFEdqWM8q2APZWG3Ae0bVQjVk8FJDGrRQ0b1CJLfRHpNJ+nDpBGGz9geRQISSwWazgJmfbfQYpHkX1wOFlL1P4iVmas7xGKCsIZkPfyaGW5/WOQRtPese5kJhKRYVUncnG2JSORgHRqDqQtDzX6sfTrNK8dq+MSM7KvW4eq6ArJwOVTOhirkdvyhKkgubcWk7e5mGy6LKOggragJjdsIw2qo08iQzuq7+qkTE9s04Hm+RbUwny6MbMhSQz60LbCe3Pp1mJvMhPbUM8NBf2+gmy6tboHVWPP0H36hXdXj/MjaPMAe5IIxFR/+jVmXQHpdH1eO6oikpCZfV2qU0WXhAYu9OnB2FLqVz5FbB6gHLvE9aeTZhdYMVTlY87Kp8uyIGWdLyBzSy/SZX2W7eDdlFBoRA4dH1WNdJrOUf9dfmRxf1AfK0Pymh+m8RwqSmltVkwG761Uh/n7ef57d9KVNKSZNzTHhb+pzpXC2xNrF5Mo+sJS6m0vZqLKgUYdeqasxPl+35CbjoD0G0+mM9H3aFN/OzaIGlKn1TGqKG4do92XIigpJZYuzPYiNkEgidu3FKAow7RDNMJWIc4sqO307bR3QU+yYyKpVLGmqNjHdtOliCRKib1As72M2YAnIbdvA1jTKYamWNscR0dH1WB2GVDzuUHKBlqm3Sm7aZAls0vSihaEs2qdtp36mjCB5aAWbyVIos29TVkF1qX3VrPGLUug9V30meipTRPOK24ow+5XEGsvK3NNZDHLyFshTAQ65DxwKe1Y/wm56jNxXCjAy35GxcWaIr72ir+VIqMGtRryPR2J0mz6ufQ8LoyWd9ZlYSTU8gc/in6cSGlR2u7LIJ+JTiRmHWetIZvIz3cFfcBEr0DSiGb65ZPs8Qq17bpU/+P1dHTPVGpprBD2bHCrP5I2HNtJk5oaKsuy4Qy/EnVAmp5A4et6kpEiP81mk2/0Y4pNznmRJ5Zu7f7L6OCeWdReOUmwpVHHFSWeT37fuLFJiT41nnyGou9tov52TOgadqLVMcW77me0qRd7nqKq1Oe3u5T4JJguBbA6IE2nhPB11NOI2StpRrN9o+lxbDLrL3xoohNrQ0woDtnkR74rPiAbhZhpNJNYlksp35wK2FNZyKbrsz3IQGRBXjNOUqz64UgTbtCxi1GqP9Qdv6TRLPIv0YBLkntlMjmLjajfzmIq4h9FJvkt+pQmbwuh58pHl08xe4dTLTbYNfj6uroO59Ptn1qQvsSZRh+JUw6sadd/oFYmYnL49IR6kClPmAoifUArOpqRpOYIOqCaib9AGkXrupkxcfY+rbqt6gTzH+6goXV0SMd1plqslBRrz89PJXcDCdUavpeeFK+qsmd0Ylxdkui606xrWjvWN8xzOjfFjYzMbchKV1JErOXf/ola6EvIefQRilMVJv3QyoTEDp/SCS2F+fzcFHIzMicbK1Z/X0OsSR+soI5mEqo54oB68eMFKrHG+gEmOqb7FoyHryHWlP2phFq8AbFW3jb7d6FdrDHeeZ0rnbcj1hQzebVTrAIM3xhCGaoA5Du1HomhQ+2Wqma42Yc/Vg4+ZgN2K0NokntnrlJ0CMwG0V7WmHNOjaHqTJyJ60wgH6WmuUhfsIGsdLGmSS7dmduMiRqW1qC9RWYkSjRE0AdzfqS2hmyAbziVLikNf4ndskT64wM2AAvNaMCudMr1m0ENJEKyHLKXzb+0IaPo5d6kJxBRtVHHKSfnNI21F5HQahgdUBWUBsXsrrBYq1iZy+JW03uKwV+nLS1+qAidRFv6MGHJBE6zH0NLNNriz6iEWGN/K+MTmlP3X0tb1cigzT0VYk2H2qtt1HpfznnVKlxho8qmE6OZ8GS2Nfku+MU9BbZLI2hhK4kyXu/lMSwOKYX93FJVloO11AFG5q7+KvHZeiEVLMAW5kniRb8oV1mT6Y8eTFyzeN9bHUeyXF+aWo/VQ512tDRaYWk2Hf7YhoQCVh92F3ugsiha0o49P5EtDdhRbBaeuYv6K8SlpDUtVCeec34C1WZ1XtJwJqmyfIJGM+EFSRP6LpgJVG3lVBF7KgmyxG3U11JElr030uMihaLJf1GsaSH7GI2yFZHpwN2qOpwfRLMbS0in1QJSzBVVpNHugRYkshlBhxSPvDxhKkj2+YnkKDFj9U7RtooiVawUM4Hj+o2/WlAqkNHjtZ3JUGxPY08rOvCiYi03bAP1sZOQcdOZdFHRtWlB9mw/DbMTU5X+25Wr6W8PGcUf+h/V0a9DH+9YT0MsNMVaPgXNbkwSHfXkXE3a7oFkIbKhEcUKUxZ/iP5XR5/qfLyD1g+xeA2xlk3nJzqSxKw7/apl0qUUaxJXat3CjMy7raMoZRBtYi2Hos5toB8nj6KhH0+k2SsP023N8pY9ptOrfqDvpnxAdcQisu8yiWZ/9x19p3Bzd1BghTRL+dtsTtQ52vDjZBo19GOaOHslHS5i1HO6+sccmrPpGouxgBwK3D6XflhzVi3s8ynq4lZa/sNUGj9qOA0aOJhGfTGPdvirFoo0kT0Ppt0/TaDh/fvRkDGzaNG45iTRJtYY767Olc2rvoguG6EZXN/vhw7OphBkP8DF07eQpNy3l4E7d6IgEwAxh6Zh6JAhGLnGDzlsrMl6mqC8FZmh2D3jQ3g6WMDUdTb88pniy05HWp4cqREPkcjiETm7opHiU0FRFVQxK3g3r53M0N2Y8aEnHCxM4TrbD/ksrex0xRerpSFD6LaNuJplgPcmTYaXocLvJXYLLdGxkyeTTxkI8Q/B89u3ESXVR7P2baD7cBk6mOhBT0/lDOw/xZ85QlTr0B4NxDI8vR2EiOgg3I6Tw6B5e7RWpvcqdpdGOcpcE4FAtedCYA4ra0X1MIGLiz3EkONJTAykimulPiPFxZIo4xO7o8v71Sv0RUuJ+zLu4/4TGQRCBzg6KXbISeDk5MCuyRAVHqEIUdR2gQEMlPtxBDAyMWPhBDAzNWL/srLMzGL/VhChBaysFBsXdGFsrKiAhIy0NFDGHdyJYnYhBoemDcWQISOxxi+HXc7C04RU5a2FCKvj/T6tYEZx2DuqFXr9dA5xZZxRknH/Pp6whyd0cIQqy05wcmB5k0UhPEL5NFR5LlJOFbCnkpB9+SQupFig69C+sKtIJfkPInt8D/dThHBwcoJyG2l6AALCCA4tWqEGq54yqZS1VkO08nKDKDkEAeGsnpQnTIXIxZU9hxFt3h0jB9Uo0a6z/P1wW2aHNt4NNfYbC1G1cye4C+Jw81oEa7UvoIQjmNRnAo6JemPV7jloY6q+UAyhZQ+MHVQHqaf34eRztedbQB67G5M+2wfzyZuxopdVsfylIyAgDOTQAq1UhQmpHDBs5QU3UTJCAsLV4RjyWOye9Bn2mU/G5hW9iuznqzC5V7DncDTMu4/EoBqlRCSoin7TR8Dq3GIsvpCp9tQkE9fnd0HTTuOw5OhdxEaex6/T+qB5q/E4UvAFujwZt88eweGTQXgqJyTfPo0jhw/jsMId9UX0a56SpY3M6/PRpWknjFtyFHdjI3H+12no07wVxh+JZ/WUIU+B78a5+HHzdbw4BiwbATt+xI9rziJW6fccf/30Cb6Yvxlngx8iITEKl7bMxkdtvTH13It+T570Fya388LgOfsQ/CwdsX6b8f16xRirnXdV517G2+kWhdboNGs7Tl9ejwE2UkTtnY91AawzkGcgPVPOhjg5ksNvwt/fHzcj82FdxwmODlas0kdjy4hOGPrLcSQ6DsOclePgqbEXODtbcf6ZACImehRDpQKmLUpFFr0FIzoNxS/HE+E4bA5WjvNkw/vLkCIy/CGzMBvXjp1AgqISvMxuVox2nd6DGxNfDwP8cDn4HnLFrmjXrgpEJg3RfcRIjBypch8Pbo0arPcSO3dEu1piSMNYRxlwC2EyCRq3bw/FdstXs7sUXmr7yxDAQF8lTKT5TDK+5BmVisAQRoUbiyuAxn1yJrByFQpLJIGuMk0BdHR12L+E/LzyyFhFPGVUmHJTNB/yjHRksk5N0cmF3/RnZXwTkfnWqOPkCAcrPXWoAkSoO2Ebds70hq00Cse+/QBdpp1FivpqUeTIzMpluVNkWVdVBwQ60NVheaB85LEJTCGa5VQheyoDMsQ9iESq0BGNGhmo/UpHFncGi7+YgAkT1O7LlbhYOTXomycvDL9/tQi+Jj0xeZybUgjJ4mORkC+AlY0NMk+MRz0Ta3ReHgaTqlbQkycijs0GyhOmQsgi4HsjFmKP9mhrrPYrRIbEJ/HIFlSBjc0LqaZAZGMLax05Ep7EqiZ+CvLvYXX/EdiQ2BI/7d+I4bXL2smtA4+ObWCdeRO+QW/pPEz5Uxz9ZiZO1JiGDd+2gnHxbksWj9iEfAisbGCTeQLj65nAuvNyhJlUhZWeHIlxceqAcjw9+g1mnqiBaRu+RasSEVUMWYQvbsSK4dG+LUoUuQa6Lb7AVx2eYuuCrYjW6CIUSG8vw6Q5V2A4YDNu3rmCsxeCEHJ8EpzCf8PE70+zqT1D3AhfHGDjxMmp8BCL0PDzg/APDESgwl1fgV6v8KG+PPEi1n4zAzNmqN03K3BapbAURmHZpDm4YjgAm2/ewZWzFxAUchyTnMLx28TvcVppVPkR1xuLXb4Xce7cVdzxX4339UKxYcUhJCmvSnFzyVSsDq2Gj3ezPJ47ifMBEQic36qMMfYd1Lly8Hq15yUIrbqih5cxBNL7uHzxEWRCE5iZiNlwqY+OCwJx//79Qnfnj0GQ3d+O1UdYRXcaj23HlmPqUE9ULbRQCBMzY4gETDQ8f4Yk5XNmEqRYZXyBDPe3r4Yqum04tnwqhnpWLUeGJXCb9D36WTOdfmIV1t9iXcpL7FYgcuyM9+ox8XXvEvYFxwCObdDeQcRU+XuYvHIt1q5VuTW/DEcjRf+l0xgdWltDkHkfPmfvIUVUD+3a27OhvKJ2M/EqEikFi0JMqYpFrvp/BeWwXTtyyJT9twxJSSksdiFMzc1BZT6jt4vQ1AKmEpZTaSqSUxU5lCMlOVVpm5nF3/dVkdDEDCZiJqD0O2JB4IvyvX//Dv4YpMUuYTV0nXsaNw5+Djf9bNxevwi7tZ5rw8rcwhSK72mkqclQZTmF5Z0JMaEZLCy0D2oVtudvh5CZmc2qsj4MC79iUyBD5P7v8flXv6v/VpP7FJGhGl+W3Y1BckUXhv6JsInS3vG98cVfxhi+diU+Un1aD8rNA5MO0NXXQ/bjaCTkpCMm6hnkevrQEyhEPZUrTIWQPsKjeKCKfU2YqL00yc1VDGrseRoWmxyJDGCoJ2DXs9lTV8PEUVRMJuTSNMQnprKnXjbiWrVQHYl4/OjtnKmQefEnTN9tjHFLvoSbtl8roVzk5bPqqsvKLvsxohNykB4ThWdyPeizvBVOHDMv4qfpu2E8bgm+1BpRxZA+eoR4VIF9TW0lroHQHsO+/hjWPquw9oZmGcnw4PARBMgaYcT0/nBQ6mghrNp9jc/f08PjY/tx+W3p34yHuOFzHufPq53PDUSmq2qA7MFhHAmQodGI6eivMopph3b4+vP3oPf4GPa/hlHiWn3Q01OMrPuhCFcUhfQu/vzrHuA+HJN7VGPjrQIdVKliWsYY+/brXHl4y8OsIdzdHSEmKe7cDEAOjODh4cJmg5m4euSYatVKA2nsE+ZHEJhZoQqTubKExEJRpnishg0aQjHpkgb54FwiEyRPAxAYpWjaTLSV6GukiH2SwPwFMLOqwiSYDAmJSWoxU1bHJETNxp9hbH8HCPOCsGH5n0h9id1K2Gykc4eaEMT/heM3ZLBp1V57Qy/EAF4dWsJEfh8nT9wHqrVG+4aKilpRu4WwtDRTitichw+gKI7sB+F4rCwWhWgrh+3akIUhKDCLmROG85eiIRMYoL5bPQhf8ozeKobucFcczyINxXXfNNYDJOEGmxVJmW1unm7qQK+HUKLDxBH7j5RkJJU3Q0Ye8HBhdmVexZFj7NmpvctGhGpdx6E/e+aUl4i4Z+wuoQQ6qsSRrE7c0N0dqixfhyrLNxAQIYXAwA2ebqXMBV/Jnr8TJkrZRExAqUhSlEMhMsT77sSvG8+o/1YhchiM1afO4uxZtTu5EL0t1Rf/rcif4ND47vh4Sya6rjqENX1sCztvgZEh602Y4E1Lh83I33H+r3P4c24biNPTkEkqwVSeMBVDBhl7VIqJYkkEMDJWbDdIQ0rxn67JeY7nmaxeG7HnrfaCbhv8fGE3xte5j2UD3sfkk4ll11mJhPVnxCaTb0GhyyLw+9yNSGg1DL0sHqsmORGJyGQG5afEIiI6CbkCIxgasB4vMw3pNiPx+/m/cO7PuWgjTkdaJkHfULGXRYaI3+diY0IrDOtlgcfKyVIEElURITYiGkkV1SBs9ixn/YbWIi+CEAatJmJCq8fYsuo40tW+irElOuoJ5Lq1ULeOYqxRwyZ+zk62EDx7hJgKrmKVF3HtEfjj8jVcu6Z2l7diTF1VRqTRUXgi10WtunWUK8Uq2ATc2Qm2gmd4VMSoio4yxrCqYggBmxwoT6STPcbjeDn0HBxR86XlqMHbrHPl5C2LNTFqNXSBqVCO9Fs3ESoVo/6IMejMJvcJe8fAu9dYTJsxGWMGT8CmSBkk9dzRwEgAaeBafD7pa4wbuQx+yrJhooOJDx33vviwoS4o9Rimdv8Q/XpNw7EUIevki70SUiJBPfcGMBJIEbj2c0z6ehxGLvNTLb3L5awplYUe2vzvIzSUyBG7dzm2RArKtFuFDpp2bgcbQSbSs42UQuxlL5xM23dAU50sPHmSBhMvbzRXvtutuN36Hh6oL2YzuoAlGNSrH96fsFMpyiifzQDlZZd5qUgf4LdRPdG3W18sCmRzcpvuGNzN/KXP6K0iboAhw1vDhBKwd+pgjB8/DD+cTIOoRn+M/tBaHej1ENepA8VPzOaHrsXwHsOw8NyLrq5UxPUxYkxnWIDZNcYbvcZOw4zJYzB4wiaULOIU7JvQGf3HT8eMzydgfaAUIrsWaKPYkCaugzqqxLF2eA8MW3iOZXkIhrc2ASXsxdTB4zF+2A84mSZCjf6j8aFyT6EWKmRPZUAI2/r1YE0P4H9DPTHhaJAJv3kDMfKPJLRbfAzbRtcv8useIttasDckPIqMRL64Kjw6tYGjkRRRkTHIE1ZHrVricoWpECJr2DCBnJwQr2UfrRDWtR1gTrF4+LDooa3S8AjEyNiE2LEO6+leIK7ZB8uPbse42uFY9dFALA4qep8msvh4PIUprKz01T5vkKxLOHOFiczT0+BVry7q1mWu4VgcTMnHg/UfwrX7IgSTLWrZG4IeRSIyX4yqHp3QxtEI0qhIxOQJUb2W4mzELFw6cwVpKacxzaueKp66DTH2YAryH6zHh67dsSi4YgO/yNoGlkhGQnw5VndEtTBs0ocQHfsVhxILWpQA+gZ6EORnsDFK7aWEkJ6eCRLrw0CzYhXsX37zPx9eBIG+gXJ1N6OoUaD0dDaREDObFUYJIVScvZSVxfxU18uLQKjRTwrYpEWPjV/ZWaiIVn6rda6cvGWxxmRPs5ZwVxTOg8u4GCNjs+JR+GPvXPSuJ0T48fVY+PNSbPzLFw+eyCC0G47583rDQfQE59etweWan+J/jVmTlmciLY2NMjpNMXPLIvSupY/ngcdwPr8XvvtfPSYJc5UH9xVFCLvh8zGvtwNET85j3ZrLqPnp/6CKLg2K6MpC7DoCI7yY3Mq8iNWrfZFfht0FGLRsCTeJAEITb/R4z0ztWzrCqt5or3gnKtBHM+82bOar9K2w3eL6IzF9eF0YMiFw+6+zSOs4FcMbSJRiLZeFL6vMS0Xiila17uHo2XDkWrfDjG3L0M+KNZiXPaO3igjOn/2ODeNbwDLuFNb9eg6pdYdg+b7F6FHuX0soG3HDUfhmdBNYCFNx7689+Ouetk26xRHBYdQf2Du3N+oJw3F8/UL8vHQj/vJ9gBJFLH2E6LvBOLxuAX5efxGZLgOwYOsceCuUvbghRn0zGk0shEi99xf2KJbrRc747PcNGN/CEnGn1uHXc6moO2Q59i3ugdKzXAF7Kgm6rXujq20mzq5bB34oe1Hy/H/B2J/8UW38Vmyf4KruJzTQ90KbpjpIvHQW/gUjkPwxzpwPBep4oXV1NgEoT5iKIK6Hxg1NkB3g+yI+DfRadICX0XOcP8LaqNpP8VFC4MFjuIdGaO/9YmWwAKFtDyzZNQ8dBJfw3cgfcFnrPEmGx9duIFrUAI21vrqQI/HKBsz9YS3Ox75CZTfui/W3wxAWpuFur0MfMwmcxhxAyPEpcGOixqtNU+gkXsLZF4WJx2fOIxR14NW6OvvbGH3X3y4aT9htrOtjBonTGBwIOY4pbhUTyOJ6jdHQJBsBvv7lEhqm3Sbgfw5XcfBUkno9SgeNmrnBSBqIM6c0Vi9z/HD6UiJEDTzQREOLCE1MYSImPE9Ofsnixuuh06gZ3NjEIfDMKRTqSuTA7/QlJLLn7KEwSmiBqlX0IY9h5ZilDvIq6DREM3cj5PkexIGY8k4LX1bn3hHKb0L/FvIpLS6aouPT1J9Dv0CaHkcxiWV9H5xJ8VGxlP7iq+kykFJ6XAyVGV2FKM1uGSXuGULVREKyHrybktS+r05F7ZZSSkwYRcRnlPhM+QWll3kBhcdU6PaiLRmsnB8+oRQt5fzyZ/SWyXlG0THJpebjdclPiaWo6ETKrOin2vlpFBcdTfFpZVkmo5zkWHqSlK39WeWnUGxUNCUWSzznWTTFJFcwx+WypzIgpfD13clKpEu1Pvie9vjeo6ioW7RpSHUSmw1Sh1EdAyB2GEjL9h+kgwc13OHLFFmsOv47ju7IodNj7Umk50kTtxbPsw/dU55jIKNn+4eRndiEmk7YTtdCg+j4j12pmtiY2i26y0q2vGEqRtKO/mQptqOPDz9X+2iSTue/dCEdSU36cBmzMyKETq8eTi76IrLpu7XwqIWSh+LKKHpTH7IR6VCDqZdKHq+Tf4t+bKZH+m0WkfIUneLknKPPaykO2RaS1dAD6iOjXpPsAzS0yNEdzEr1cQ4mTSfQ9muhFHT8R+paTUzG7RbR3VILM5sODH2dozuSaEd/SxLbfUzailx5dIdOZ1qboPZgZRm1upPqKKKCozsyfGhyfdaGqnrTtI0n6MKZXfTjh46kJ7Kl/tseF+2Pcq/SlLpiEtXsQwuPXKEbfhfp8O976UaFmlN5ju7IIJ/J9UlXXJW8p22kExfO0K4fPyRHPRHZ9t+mPspHRrF/9CRzkRE1GrmSjl7yI7/LR2iKp+TFsUaUSOu7sLTcZ1NgYVrZdHBYFZLUnkA+6jLPuDSNGrG4zT1G07IDPnT9xlU6OrVZqUd3vLTOvSP+RrH2b0JGydcWU3fWeAU6jWiG798oYl6TImLtnzzGcf6BPKdrKz8id8uCX59gTsAGxHpfqK+rOn6lf3Gn04FWFjuJ/18h1mRxtPo9xbmKWvIsaUpzbqtHD9kzOv/De1RdV6C8JhCbU5PROylcc+wpT5iKkH2RvqonIb3GM+mqNlWUfYt+H+FG5uKC9IzJqcc8uvCs4DlpE2sMaTit7mJOIpNOtErzVxpYP/t4a1+qygb1QbsSigqLAvIDaI6n4uBrAem//xs9U3u/FlrEmsKWZ+d/oPeq66rqKqun5k1G084yC/N1xZqiyL+iehI9ajzzagkhWlKsMZL30kdVhS/EGiPn7jYa17Ia6QvZcxEISGLRiPovuUrJJQpUStF7x5C7mfqXbFiZisw60NJ7FVEs5TxnLecubRvXkqrpK36pRUACiQU16r+ErmoalR9Bu8Z6kpX6F4yUdUqkT1U7L6E7yrjLJ9ZYz0Dhe78ib3sDjV/CYeVg2YEW3y5uZDnq3DuCi7U3gCxhI/UyU1R8A3KdfI5KOc/xHwEXa5y/nZwEuud3iS5cuk63op+/tdXTfyM5CXfp+uWrFByTXurAUp4w5UNGiYdHUW2JLjl/crDkLw6oyYy9Tb5XAyjyeVmj9cvJvrWculiJyer9tWWucGRc/4Y89EzovZWaP1f1lmB19e71y3Q1OIbS38VILkukw6Nqk0TXmT45+OS1nl/Oswd0624sZbwskux4uhdwna4HhlF8hV81VJCcZ/Tg1l2KLcOo3KRIuhXgT4G3wyku7TXqlCydHt/xp2vX/el2pPa3KOWtc+8CLtbeBGwmuNi7BnlNOUZP/uYH+tokH6Wvu3emzj2+ozP/3AVCDofzTkihy995kZnIhBp/fphi3lL/l3JjOfWyl5B+vdF0sDRVmH+b1g9tStWN9Kl2v98o9N+q8lMu03deZiQyaUyfHy75k4GcN0O56tw7RKD4B5zXJi8nF2I93bf/xQaHw+FUJuRJuDh/KKaFjcDeTYNQ2uH6r0Oqz1T0nJ2HL7YsRh/1WVwlkCfgxNKVCKszCB/3bAizf3FnLE+6iPlDpyFsxF5sGVRD7ct5k5Srzr1DuFjjcDgcDofDqcTwhSAOh8PhcDicSgwXaxwOh8PhcDiVGC7WOBwOh8PhcCoxXKxxOBwOh8PhVGK4WONwOBwOh8OpxHCxxuFwOBwOh1OJ4WKNw+FwOBwOpxLDxRqHw+FwOBxOJYaLNQ6Hw+FwOJxKDBdrHA6Hw+FwOJUYLtY4HA6Hw+FwKjFcrHE4HA6Hw+FUYt7KD7nLctORmimHgakp9ERqz3KSc/cEdl55AtRsi5GdnNW+lYdC+xzaY/h7jqhg9t4dOXdxYucVPEFNtP2oE5x11P6VBhny8gAdnUpbghwOh8PhVAre7Mqa1B9zWppDX98UlpbmMDCwgGObYfj5rxhI1UHKRo5Un6UYO3o0xq24ovarTGjYt8oXuWrfyog81QdLx47G6HErcCVb7VlpSMGxMc4wMXfF1As5aj8Oh8PhcDjaeLNiTZ6DlOQM5AtM0OD9wfjQyxJPr27HzF5dMOFYIpM6b4GsR/DdvRCT5x5C/FtJgPPGkWfhcXQi8nJiEfWk0ilJDodTIWSIPzsP09YG421NvWSRbBz5dj8i89QeHM5/jDf7GjTvMr5q5I2lkbUx+cItLPLKw/XvO+G9OdeR22A6Lt2cj+Zlvo6TI2FtV9iPPw1Bjz+Qc3Sk2r90snYPQNXBe5HTaiHu+UxB7bf6Vk3Dvl5bkHxoGAzUVyob8oS16Go/HqcFPfBHwlGMNFVfqCRI42/i7B09eHo3gAXfOfmfR54SCf/AO3gY9QTJMmPY1W+Jds1rw7RIe5Yh+uoR3IiVqf8uQACxnSc+aGmv3JYgi76KIzez4NyhAxqYaa9cyjA3YlmMRRGI7eD5QUvYJfjhuG8M8rT2jkJYu3dFW0fW+mXRuHrkBkqaJIad5wdoaf8mOqQ8JAQex/4//fHwOWDu2Bw9BnSHq0WxuHNicHHXTvwVmgJdh5boO6RHyfyXJ0yFkCP2yOfoOmQDktqvwJnDY+GiYZY8JRR/7jqAq1H5qOLSDB26doG7jbjgKp7fOYfz9w3RtGdLFBaVPA7+f15FjL4LOnasD1MWLmb7ELQeeQCi3utxcttI1K102zo4nLeMQqy9MXIv0ZfOYoLYmSZfyVX5JW6mPmZC5lf3hZ+CjAg6v3UJfTt1Bi3YFUhJMoWnjOLXdCLWDkm3xx/KYAVkRJynrUu+pakzFtCuwCQWkuj5jd20+H8epCcAiR370Owly2jD2SjVDQxt92hDlhZGZzYvpNmTJ9GXX8+jPy5EU476WlE07Ou1hTKZT3rgXlqxdCkt3+ZLieoEtKUrS7pOO1cspaUr9lJguipcbuhhWrlsGa06clfloYksia7vWEFLl66g/cGKlBjZIXSAxbFs1RG6m1+23bL4NdRJBwTdHvRHCvNI8afdinvX/knhUkWAZPLbyeJfto5OKD3UaH0uxZFR0vWdLN8r6NCtJLr75xr6YfosWnrkHmWoQzDjKOzMZlo4ezJN+vJrmvfHBYouLNRMCtmvyNtKOnSH1QlFXhW2rDxEt9NjyXfrfFp0+MVz5Pz7SfmjB+kKxGRgbk1VzPRIJBCRWf0BtPjKM412m0YbP9AlgUBIYrFYw0nItP8OZXtUhtr4AelKGtEsf9ZISkEZRiAgYZF4xCQx7U87WETZB4eTtUTtLxKyNFlYUUE4A/JeHq2yK20jfaArIIGw4JraSUypvyKi10UaTXvHupOZSESGVZ3IxdmWjEQC0qk5kLY81Gi36ddpXrsqJJKYkX3dOlRFV0gGLp/SwViNBlyeMBUk99Zi8jYXk02XZRRULLu5YRtpUB19EhnaUX1XJ2V6YpsONM83TR0in27MbEgSgz60rfDeXLq12JvMxDbUc0MEvchhNt1a3YOqsbJ3n36B1QQO57/F2xdrsse0wluHINAh7xWPVR3ccx+a1cyU2HxOMW9l1wzJfZoPa4Daxdpzn1nUzJQJPnV4gaE7TfN5Tg9+8SJJQRxKJ6LqY06VcY+2Jp5L16bXJzbXexFWZEu9f9fsKAooJtakd2lBawPWUZtRp5UPlOFLTTfzGI2qJiKIatFn5xSqJZ9Cvm/C7JeQ++wgZexFyaTDH9uwMhKT81eXmZXMUt9p5CIGSRrPpqD8su0uLtak4QuolQQkNB9C+7NZAGko/dRMQhBa0NADCg9Gqc+lOFIKX9CK2S4mpxbNyIoNHqr0q1KvDZHK9HOvTaf6zNYC28AGX9vev1OEyjha04nVCehSD6VxD+gXL2aLpBkNGlxPOWjXn35NmRLnv4FSrEnc6JsAhcDKoXi/TTTOw4zEVu/TugcFLVEl1iSNZlEZOqz8Yu0lYQrIvTKZnMVG1G+nFvGlFGsSajTLn7Xot0Em+S36lCZvC6Hnys4zn2L2DqdaTBA2+Pq6Os18uv1TC9KXONPoI3HK9pd2/QdqZSImh09PqNtvecJUENZuV3Q0I0nNEXQgvpjgk0bRum7s+dm8T6tuq2Zp+Q930NA6OqTjOpOuKYeHkmLt+fmp5G4goVrD99KT4hpS9oxOjKtLEl13mnVN+3Saw/m38jrr3+VDaA5rKz3F+1YkP30KOaS4sXgSFt7Ig9vkM4i+twn9q+UgePVP2PpIy6Yz6Q0snrQQN/LcMPlMNO5t6o9qOcFY/dMOiMcexN11PWEkABvnZ8M3Ohp+89uWcc9WlExCB42HLsD2SxFISonFhdleMJLH4fiKTQgp86sIQtqJRVjpmw19z8lY+KkjRGWlq9canduaQSh7jCD/x5AhG7duhUMqskOr9vXUcWpigNbeLWEskCE6JBhJcjlS2P9HyUSo0dob9cSvandpVOS5CKCjo8P+lSI8IAUdFm3H+k9coSePx/EFq3Fd8ZVn46FYsP0SIpJSEHthNryM5Ig7vgKbtBkn0IWuDnuI+X7YtSsG1l4DMKBVVfVFzn8PXdh4jsDKPXPRPu8U5i8+hyz1lf8eBvCcvB6LPmoE1dtKMWr0GIAOVoTHD6Og3MIlvYM9+25C1uwTTH+/qvJVsHGzLzGxmwkeHd6Fc5nlDFNBci6txIqLQOdZc9HLpuhQIovYjS0s0vqj52BMA12ln9hhIH6e0h6S0G3YdLHk51l593/H/4YuQ0T9qdi8oh+qFR+dhJboPHceBlW5jfWL9+Mp36PM+Q/x9sUaS8LAUJ8N7ITcnBzI8/yxd98d5EmaYfhEb9jXHYihnapAkHUDF5jwKU6e/17su5PHxNhwTPS2R92BQ9GpigBZNy7AT2QNWzNdFjdDxxjWdnawNdct8x4tSUCnYXcMaF0bFqa2aDGwG1zErG+LfoCIsjazyqPx+8JdeCxqgM8WfQk3nbJt9c02hndnLxgy8XXH3x/Zefdw+142BGZeaO+p6syKY9beG03YJWloAALz8xESeBd5Agu08vZkw9kr2l0aFXwuEolqg4mkxRj8PHEwPv1lCrqaMPn28BLOR8gUxqH7gNaobWEK2xYD0U1lHB5oNU4HOuyyoq6Yv78Mly9ux3cf1FRe4fx3EdUejMFtdPHk3EkEvkqd/pcie3wP91OEcHByYi2HkR6AgDCCQ4tWqMGapUwqZZNiQ7TycoMoOQQB4WyCVJ4wFSIXV/YcRrR5d4wcVKPEQJLl74fbMju08W7I5GUBQlTt3AnugjjcvBZRZL8gJRzBpD4TcEzUG6t2z0GbUvbYCi17YOygOkg9vQ8nn6s9OZz/AO9ArMmRmZ6leA8GY1NTiDLu4E6UjP0Vg0PThmLIkJFY45fDWmsWniakqu95QcadO4iSMTkWcwjThg7BkJFroAr+FAmp2qdWFb4nMxS7Z3wITwcLmLrOhl8+C5udjrQyBggZmx1uvJoFg/cmYbKXodKv7HQBy46d4KlLyAjxR8jz27gdJYV+s/ZoYyDDw2UdYKKnBz2lM4D9p38ir1oHtG8ghuzpbQRFRCPodhzkBs3RvrUqvVexu1Qq+FwEAqVEhsDcCtaKWmTiAhd71i3LnyAmRtHxZyJ09wx86OnAxKQrZquMQ3ppximjE8O9y/uo/g5qJeefgDHqOtsBjyKLfAUoizuDxV9MwIQJavflSlwsWUVfjiwOZxZ/8SKeCV9i5atFhLgzi/FFYTwT8OXKi3iVmF5KXhh+/2oRfE16YvI4N6UQksXHIiFfACsbG2SeGI96JtbovDwMJlWtoCdPRFycrFxhKoQsAr43YiH2aI+2xmq/QmRIfBKPbEEV2BR+TKBCZGMLax05Ep7EvjjOKf8eVvcfgQ2JLfHT/o0YXuZXYjrw6NgG1pk34RtUmQ9P4nDeLG9/WJRFIyImByTQQ3V7Wwgy0pEpJzaoJyP8pj/8/W8iMt8adZwc4WClp76pADky0jOhCh6Om/4s/M1I5FvXgZOjA6z0tJlfwXuYfVtGdMLQX44j0XEY5qwcB0+J+loZSCPD8ZDpvuxrx3AiQSEAX56u0K4T3nNj4uthAPwuB+Nerhiu7dqhilAAk4bdMWLkSIz8f3v3AhVVnccB/Htn7uDwlEeCmgokrQiRGlqsyYIkbJonJWuRNV91SmFza3V7n2O1a541zcWQ2LLMTe1lLsFqmobkY922PKJpqKgoKE/lIYgwzOO3987cwUEQZgw9I/4+51w4c+d/7/1zL/fP7//nP79rXmYhecxAiOKv8EBMMETDMfy0fz8OHTNCMyIWsb7S4a6x3ldjcui6dEBwg6s83EcG6PUGFH88E/GPL8HmqhBM/0s6UuyqnAB3D48b0YNgNwUVtNIvlWBqwiXbwV3dORQVFKDAuhwpQY2jA0NmOpwrstlPwRGUXNuOpCoV2eynAEdKauzMLekA6Z7fkDoZz33jiRmZ6Zim/J+QdC3QS/dOL1ctms4Wo7K5ASWnz8OkdYVW0KOlhewq4xDDGZypAG4bFAgvZZUtnU4OpFzh7m7p1LVSu8FdK0jvN5kns5qZzuF0idR2GupRUXWh3Sd0ryQGB2MAqnD2DA+3slvHdf+7aCrNRd5hAwRNBKLu84TKyxteonQDuz6At/ILUVhoXX7G6qlyFGJLBS9vL1iKv4X81rLS8vNqtCtu5tg2xsL1yMgpB+5MxbpNK/D846PQ146zohn2LF5/1B+o3YKV7x2SGmY7jqsOQcK4UCn4OordXx5ECUIQHRsEtbSt37gFSM/MRKZ5eRdLZkRIvWYXjIgbA3+hEYXf5eJonRqhMbHmj7g7Wm9BrYZaqhsZ9NCbBxcJJptBRseuiw2T1GuXvxurUV0nNb+q3vDxOoH1GTkox51IXbcJK55/HKPsOamMtWFEXU09qJcXvJXBZJk6KBkZ23KRm6ssW5disp/ypiPUQUjO2HZ5P7lbsfTadoSg5Axsa91PLrYunYxr2dNVmUrxVepDmPVxIx5c+RXeTezX2ngLHu5wk+7nxvoGBMz+EHnf7MDXf42G2FCPRrIETPaUcYx030vth1pqV9oT4OHpIX2tR12dTSMja65FbSOkTpmn9L6iVzT+tvNzpA4uRNrvJmDB1i5ycmo0UttIMBq7PRxmzGld37+gLSfxyYtvY6fUK/aKm4GpIdKN7RGJSHn+UuNe5Gyq7PymlHhERprnYjXuzcEm8whWWyqNCzTyXV9Xg2qlq9bVNrYMZaWoNBEE7z64TSM1QZVVqDZvIvVGzSU6pgocgT/MfQxBqhYc+GAFvr5gz3FFRCTEIVCowDebf4Qx4H7EypPdOuE2Og6/9jKhcOsWFKI/xsRa5oA4Wm+Vnx+8pWiNmk/h+GkpvGo6jhNn5TBLCdocvC5WxmMHkH9Jqs+xPOwuNkJwC8OwkPMolX5+ErzRx1I5VFkqh+5/uBnrsYzF2HegDMKQuxHR8bTOW0QjflichNmrqxHz9iaseyrMPGfVSt0vGIPcCWeKiqAX+yIyPhohHgacLipBi2oAgoNFu8o4RO2PACkaramssHzIoQ0V/O8Igg+V4dSpZmWdheHESZQYVQgMGQzbsXYxMBEr/r0eKXecwMppSXj7QNvtbBkrKnAOvdGnj6uyhrGe7/oEa6ZKbHn9McQNj8ITnxeD/Mdj8fLZGCQfTQzDzDkJ8EUlNswZi0lzX8DLC+Yged4aFHUw/i2GzcScBF+gcgPmjJ2EuS+8jAVzkjFvTZF5REccPNg80qQvyMSMidOxdEdDl9vY0oQOR7iHAEN+Jp559iWkzE7DD+YOm0keNOqUNvoJTLtLA1PZBqz4uAiCHcd1GZmAmAABjQ1N8JADsa7+w9g7FnEjXXCptBT1XqMx9j5LM+1wvV2lYCxMhKDfj+VTJ+HRCfPwqRxQkh66Fum7g9fFynB8FZ58eArGT1mGfL2AgIeSMd4/FMPDpZ61IR+ZzzyLl1JmI81SOSkw7OKkMmZmQs32v2P1PhEjEx/BkM6mMfVwLfuWYO6b+9A/dS3Wz7u7fSJu19GIltqIqt252GedxmU6i2/zCoDBozFmgHTy7CnjCDEUI+7yQtP+/17enw1tVBxGe9QiL2eHzdw9HfKzNuEoIhA79vLIoJWq30Qs/2wx4oTdeG32G9jToLzRhhFnv/8RxepwjOiio8tYj6Kk8Ogeuj00X86zJg/XQCCNdzBFJS2kjUeVPF5Wxkra8WYihXlrSP7PHAQN+US+Qrt0HedZM1buoDcTw8hbo+Tz0vhQ5Cu7zLnH5KSRX6beQ76i/J4LPZBR3vU2bTTTwYxECtYKJKg9aei01+jpe+ScX9G0rMia38nqyqS4BjqxPIZcBYHEIfNpt/Rjdn3cGvpggtacmy3xn1XKus4YqGDRvaSRzqf7+PfpcjqjzuvdLimuVPeSL56kUHc5wadI3sNm0aszw6X99qKJHylZlq56XSxvX3b5PGiGxVP87VJ5wYX6xrxK31ZaKth8MIMSg6WfU1CT59Bp9NrTlpxy0cuKpM2vyLN25Wt2yzHnWRMH0/T3v6W87f+iVQuTKMJbTb2jFtJeJYk0KXnWxKAkStuYRVlZNkv2HipSUm+Zc6iJQZSUtrFtmaxs2qMUsqeMVdd51kQKSkqjjW32k0XZe4quklzbEc20fe4gUmtH0R/Xtt1/VvZ3dNR86xrp/MbpdLvoRSPnrafvCw7Q5kUPUn/Rk2KWHTHnVLOvjGOqP3mM/MTbaVZ2rbLGVgPl/WkouWgC6ZE0qZ4nf6LtGTNoqKuaAqasVXKodZQU10jFaxIpQO1C4c/vbk103Ep/iBbdqyXX6GXUmn6PsVtA9wZrMv1Fqqkoo/LqBpJir87p66m8uJgq6tuHUB3R15dTcXEFdVRcX1dGp4urqPGKY3a2jS1DQzmVVHVfosWrHddY9QX9vr+aVP7J9Hm1svIXcLTehroSOnaygi52dm26vC5tg9aLjRV0qrSufYNvaKDykqpu+IPFerqGL5+kO/zcSJQ6PnICZfd+w2jicx/R/jaxuyVYs3QGr1hc4ihdycRvDsQ6KiN15uLSy6TfXvvKWHUdrHW0H5BLXDr9gocDWBjLKWOc3JHp4BiakfSXw8pdZzxPeW+MowG9lE6i6EP3PPUpnbDN1GtPGUc07aL5oRrSjniF9rY+usRG0yH6cOYw8jF3pOXjedKdExfTzvPWk9JRsCYxnKCM3/qQ2iueVto+pUG6KmfXTqG+Yl+a+lllm2vEWE/Xvc8GZZ0y1f4PadOn4MWvz2HoSzvx4+KoNnNPbh43zzNS2c3F0FCNWqM7fL215sStzDG6qqM4eLwW2kERuGtgx5+stqeMfUw4l/M0oh5dB3HmZ8h7b3L7RLaSS+U/46fTLQgYGoFgbwfnxtloPvwOJsctwP5R6dibMxfyFGjGbhUcrN0opiqseWQInsi+ANe752PTrmUY62QPV7cfB2uMMdkF/Of1CZi46DCCU9YiO+1hc9Ld7nZh3zuYOeXP2OY2C5/k/gOTO4oKGevB+Df+RlH5Ifo3IzBg9AJ8sWXJTRyoyVRwGRiJ+IQExA/vzyMgjN2yeuP+hTnIfmM0XC5ckrN2XB8Xz6A2MAXrt7zLgRq7JfHI2o3U0gydqEUvbmsYY4wxZicO1hhjjDHGnBiP8TDGGGOMOTEO1hhjjDHGnBgHa4wxxhhjToyDNcYYY4wxJ+bQBwxOnTqFzZs3K68YY6xrBoMBLS0tcHPjbHxXqqmpga+vr/KKMdYTTJo0CQMHDlRedQ+HgrWDBw9i1apVyivGGOuaHKzpdDq4u7sra5gVB2uM9TwpKSkIDw9XXnUPTt3BGGOMMebEeM4aY4wxxpgT42CNMcYYY8yJcbDGGGOMMebEOFhjjDHGGHNiHKwxxhhjjDkxDtYYY4wxxpwYB2uMMcYYY06MgzXGGGOMMSfGwRpjjDHGmBPjYI0xxhhjzGkB/wcah1COik0qvgAAAABJRU5ErkJggg==;" vertex="1" parent="1">
          <mxGeometry x="40" y="80" width="309" height="87.36" as="geometry" />
        </mxCell>
        <mxCell id="rVTaWRf0EMXNWynutYvV-3" value="500 for unexpected errors" style="text;html=1;align=center;verticalAlign=middle;resizable=0;points=[];autosize=1;strokeColor=none;fillColor=none;" vertex="1" parent="1">
          <mxGeometry x="360" y="108.68" width="160" height="30" as="geometry" />
        </mxCell>
        <mxCell id="rVTaWRf0EMXNWynutYvV-4" value="Storing state" style="text;html=1;align=center;verticalAlign=middle;resizable=0;points=[];autosize=1;strokeColor=none;fillColor=none;" vertex="1" parent="1">
          <mxGeometry x="250" y="420" width="90" height="30" as="geometry" />
        </mxCell>
        <mxCell id="rVTaWRf0EMXNWynutYvV-5" value="Transactional log" style="text;html=1;align=center;verticalAlign=middle;resizable=0;points=[];autosize=1;strokeColor=none;fillColor=none;" vertex="1" parent="1">
          <mxGeometry x="100" y="470" width="110" height="30" as="geometry" />
        </mxCell>
        <mxCell id="rVTaWRf0EMXNWynutYvV-6" value="External database" style="text;html=1;align=center;verticalAlign=middle;resizable=0;points=[];autosize=1;strokeColor=none;fillColor=none;" vertex="1" parent="1">
          <mxGeometry x="354.5" y="470" width="120" height="30" as="geometry" />
        </mxCell>
        <mxCell id="rVTaWRf0EMXNWynutYvV-7" value="Application state vs resource state" style="text;html=1;align=center;verticalAlign=middle;resizable=0;points=[];autosize=1;strokeColor=none;fillColor=none;" vertex="1" parent="1">
          <mxGeometry x="40" y="230" width="210" height="30" as="geometry" />
        </mxCell>
        <mxCell id="rVTaWRf0EMXNWynutYvV-9" value="server side data related to client, client session" style="text;html=1;align=center;verticalAlign=middle;resizable=0;points=[];autosize=1;strokeColor=none;fillColor=none;" vertex="1" parent="1">
          <mxGeometry x="40" y="302" width="270" height="30" as="geometry" />
        </mxCell>
        <mxCell id="rVTaWRf0EMXNWynutYvV-10" value="same for every client, typically what we store in a database" style="text;html=1;align=center;verticalAlign=middle;resizable=0;points=[];autosize=1;strokeColor=none;fillColor=none;" vertex="1" parent="1">
          <mxGeometry x="180" y="272" width="340" height="30" as="geometry" />
        </mxCell>
        <mxCell id="rVTaWRf0EMXNWynutYvV-11" value="" style="endArrow=classic;html=1;rounded=0;exitX=0.147;exitY=0.998;exitDx=0;exitDy=0;exitPerimeter=0;entryX=0.129;entryY=0.046;entryDx=0;entryDy=0;entryPerimeter=0;" edge="1" parent="1" source="rVTaWRf0EMXNWynutYvV-7" target="rVTaWRf0EMXNWynutYvV-9">
          <mxGeometry width="50" height="50" relative="1" as="geometry">
            <mxPoint x="180" y="342" as="sourcePoint" />
            <mxPoint x="230" y="292" as="targetPoint" />
          </mxGeometry>
        </mxCell>
        <mxCell id="rVTaWRf0EMXNWynutYvV-12" value="" style="endArrow=classic;html=1;rounded=0;exitX=0.713;exitY=1.113;exitDx=0;exitDy=0;exitPerimeter=0;entryX=0.084;entryY=0.017;entryDx=0;entryDy=0;entryPerimeter=0;" edge="1" parent="1" source="rVTaWRf0EMXNWynutYvV-7" target="rVTaWRf0EMXNWynutYvV-10">
          <mxGeometry width="50" height="50" relative="1" as="geometry">
            <mxPoint x="170.13" y="258.62" as="sourcePoint" />
            <mxPoint x="174.13" y="301.62" as="targetPoint" />
          </mxGeometry>
        </mxCell>
        <mxCell id="rVTaWRf0EMXNWynutYvV-13" value="needs to replay the transactions to&lt;div&gt;reconstruct the prevailed state&lt;/div&gt;" style="text;html=1;align=center;verticalAlign=middle;resizable=0;points=[];autosize=1;strokeColor=none;fillColor=none;" vertex="1" parent="1">
          <mxGeometry x="50" y="520" width="210" height="40" as="geometry" />
        </mxCell>
        <mxCell id="rVTaWRf0EMXNWynutYvV-14" value="generally append only" style="text;html=1;align=center;verticalAlign=middle;resizable=0;points=[];autosize=1;strokeColor=none;fillColor=none;" vertex="1" parent="1">
          <mxGeometry x="75" y="590" width="140" height="30" as="geometry" />
        </mxCell>
        <mxCell id="rVTaWRf0EMXNWynutYvV-20" value="" style="shape=table;startSize=0;container=1;collapsible=0;childLayout=tableLayout;" vertex="1" parent="1">
          <mxGeometry x="35" y="650" width="240" height="40" as="geometry" />
        </mxCell>
        <mxCell id="rVTaWRf0EMXNWynutYvV-21" value="" style="shape=tableRow;horizontal=0;startSize=0;swimlaneHead=0;swimlaneBody=0;strokeColor=inherit;top=0;left=0;bottom=0;right=0;collapsible=0;dropTarget=0;fillColor=none;points=[[0,0.5],[1,0.5]];portConstraint=eastwest;" vertex="1" parent="rVTaWRf0EMXNWynutYvV-20">
          <mxGeometry width="240" height="40" as="geometry" />
        </mxCell>
        <mxCell id="rVTaWRf0EMXNWynutYvV-22" value="seq num" style="shape=partialRectangle;html=1;whiteSpace=wrap;connectable=0;strokeColor=inherit;overflow=hidden;fillColor=none;top=0;left=0;bottom=0;right=0;pointerEvents=1;" vertex="1" parent="rVTaWRf0EMXNWynutYvV-21">
          <mxGeometry width="65" height="40" as="geometry">
            <mxRectangle width="65" height="40" as="alternateBounds" />
          </mxGeometry>
        </mxCell>
        <mxCell id="rVTaWRf0EMXNWynutYvV-23" value="event type" style="shape=partialRectangle;html=1;whiteSpace=wrap;connectable=0;strokeColor=inherit;overflow=hidden;fillColor=none;top=0;left=0;bottom=0;right=0;pointerEvents=1;" vertex="1" parent="rVTaWRf0EMXNWynutYvV-21">
          <mxGeometry x="65" width="70" height="40" as="geometry">
            <mxRectangle width="70" height="40" as="alternateBounds" />
          </mxGeometry>
        </mxCell>
        <mxCell id="rVTaWRf0EMXNWynutYvV-24" value="key" style="shape=partialRectangle;html=1;whiteSpace=wrap;connectable=0;strokeColor=inherit;overflow=hidden;fillColor=none;top=0;left=0;bottom=0;right=0;pointerEvents=1;" vertex="1" parent="rVTaWRf0EMXNWynutYvV-21">
          <mxGeometry x="135" width="45" height="40" as="geometry">
            <mxRectangle width="45" height="40" as="alternateBounds" />
          </mxGeometry>
        </mxCell>
        <mxCell id="rVTaWRf0EMXNWynutYvV-25" value="value" style="shape=partialRectangle;html=1;whiteSpace=wrap;connectable=0;strokeColor=inherit;overflow=hidden;fillColor=none;top=0;left=0;bottom=0;right=0;pointerEvents=1;" vertex="1" parent="rVTaWRf0EMXNWynutYvV-21">
          <mxGeometry x="180" width="60" height="40" as="geometry">
            <mxRectangle width="60" height="40" as="alternateBounds" />
          </mxGeometry>
        </mxCell>
        <mxCell id="rVTaWRf0EMXNWynutYvV-26" value="put&lt;div&gt;delete&lt;/div&gt;" style="text;html=1;align=center;verticalAlign=middle;resizable=0;points=[];autosize=1;strokeColor=none;fillColor=none;" vertex="1" parent="1">
          <mxGeometry x="110" y="690" width="60" height="40" as="geometry" />
        </mxCell>
        <mxCell id="rVTaWRf0EMXNWynutYvV-28" value="only if put" style="text;html=1;align=center;verticalAlign=middle;resizable=0;points=[];autosize=1;strokeColor=none;fillColor=none;" vertex="1" parent="1">
          <mxGeometry x="210" y="690" width="70" height="30" as="geometry" />
        </mxCell>
        <mxCell id="rVTaWRf0EMXNWynutYvV-30" value="&lt;p style=&quot;margin:0px;margin-top:4px;text-align:center;&quot;&gt;&lt;i&gt;&amp;lt;&amp;lt;Interface&amp;gt;&amp;gt;&lt;/i&gt;&lt;br&gt;&lt;b&gt;TransactionLogger&lt;/b&gt;&lt;/p&gt;&lt;hr size=&quot;1&quot; style=&quot;border-style:solid;&quot;&gt;&lt;p style=&quot;margin:0px;margin-left:4px;&quot;&gt;&lt;span style=&quot;background-color: initial;&quot;&gt;+ WriteDelete(string)&lt;/span&gt;&lt;br&gt;&lt;/p&gt;&lt;p style=&quot;margin:0px;margin-left:4px;&quot;&gt;+ WritePut(string, string)&lt;/p&gt;" style="verticalAlign=top;align=left;overflow=fill;html=1;whiteSpace=wrap;" vertex="1" parent="1">
          <mxGeometry x="70" y="760" width="190" height="80" as="geometry" />
        </mxCell>
        <mxCell id="rVTaWRf0EMXNWynutYvV-31" value="storing in an append only log file" style="text;html=1;align=center;verticalAlign=middle;resizable=0;points=[];autosize=1;strokeColor=none;fillColor=none;" vertex="1" parent="1">
          <mxGeometry x="60" y="850" width="200" height="30" as="geometry" />
        </mxCell>
        <mxCell id="rVTaWRf0EMXNWynutYvV-32" value="&lt;p style=&quot;margin:0px;margin-top:4px;text-align:center;&quot;&gt;&lt;b&gt;FileTransactionLogger&lt;/b&gt;&lt;/p&gt;&lt;hr size=&quot;1&quot; style=&quot;border-style:solid;&quot;&gt;&lt;p style=&quot;margin:0px;margin-left:4px;&quot;&gt;+ field: Type&lt;/p&gt;&lt;hr size=&quot;1&quot; style=&quot;border-style:solid;&quot;&gt;&lt;p style=&quot;margin:0px;margin-left:4px;&quot;&gt;+ WritePut(string, string)&lt;/p&gt;&lt;p style=&quot;margin:0px;margin-left:4px;&quot;&gt;+ WriteDelete(stirng)&lt;/p&gt;" style="verticalAlign=top;align=left;overflow=fill;html=1;whiteSpace=wrap;" vertex="1" parent="1">
          <mxGeometry x="360" y="760" width="160" height="90" as="geometry" />
        </mxCell>
        <mxCell id="rVTaWRf0EMXNWynutYvV-33" value="" style="endArrow=block;dashed=1;endFill=0;endSize=12;html=1;rounded=0;entryX=0.994;entryY=0.196;entryDx=0;entryDy=0;exitX=-0.01;exitY=0.174;exitDx=0;exitDy=0;exitPerimeter=0;entryPerimeter=0;" edge="1" parent="1" source="rVTaWRf0EMXNWynutYvV-32" target="rVTaWRf0EMXNWynutYvV-30">
          <mxGeometry width="160" relative="1" as="geometry">
            <mxPoint x="340" y="780" as="sourcePoint" />
            <mxPoint x="320" y="850" as="targetPoint" />
          </mxGeometry>
        </mxCell>
        <mxCell id="rVTaWRf0EMXNWynutYvV-34" value="We need an event to transfer the events to the&lt;div&gt;transactionLog&lt;/div&gt;" style="text;html=1;align=center;verticalAlign=middle;resizable=0;points=[];autosize=1;strokeColor=none;fillColor=none;" vertex="1" parent="1">
          <mxGeometry x="25" y="903" width="270" height="40" as="geometry" />
        </mxCell>
        <mxCell id="rVTaWRf0EMXNWynutYvV-35" value="&lt;p style=&quot;margin:0px;margin-top:4px;text-align:center;text-decoration:underline;&quot;&gt;&lt;b&gt;Event:Struct&lt;/b&gt;&lt;/p&gt;&lt;hr size=&quot;1&quot; style=&quot;border-style:solid;&quot;&gt;&lt;p style=&quot;margin:0px;margin-left:8px;&quot;&gt;Sequence: unit64&lt;/p&gt;&lt;p style=&quot;margin:0px;margin-left:8px;&quot;&gt;EventType: EventType&lt;/p&gt;&lt;p style=&quot;margin:0px;margin-left:8px;&quot;&gt;Key: string&lt;/p&gt;&lt;p style=&quot;margin:0px;margin-left:8px;&quot;&gt;Value: string&lt;/p&gt;" style="verticalAlign=top;align=left;overflow=fill;html=1;whiteSpace=wrap;" vertex="1" parent="1">
          <mxGeometry x="60" y="970" width="160" height="100" as="geometry" />
        </mxCell>
        <mxCell id="rVTaWRf0EMXNWynutYvV-36" value="type EventType byte" style="text;html=1;align=center;verticalAlign=middle;resizable=0;points=[];autosize=1;strokeColor=none;fillColor=none;" vertex="1" parent="1">
          <mxGeometry x="224.5" y="1005" width="130" height="30" as="geometry" />
        </mxCell>
      </root>
    </mxGraphModel>
  </diagram>
</mxfile>
